<?xml version="1.0" encoding="utf-8"?>
<!-- Generator: Adobe Illustrator 23.0.2, SVG Export Plug-In . SVG Version: 6.00 Build 0)  -->
<svg version="1.1" id="Layer_1" xmlns="http://www.w3.org/2000/svg" xmlns:xlink="http://www.w3.org/1999/xlink" x="0px" y="0px"
	 viewBox="0 0 512 512" style="enable-background:new 0 0 512 512;" xml:space="preserve">
<style type="text/css">
	.st0{fill:#FFFFFF;}
	.st1{fill:#0090C5;}
	.st2{fill:#6BC200;}
	.st3{fill:#9F7AD1;}
</style>
<g>
	<path class="st0" d="M288,313.9l-10.3-97.5c-0.8-7.8-10.3-11.2-15.7-5.8l-24.1,24.1l-64.2-64.2c-3.6-3.6-9.5-3.7-13-0.1l-26.2,26.2
		c-3.6,3.6-3.5,9.4,0.1,13l64.2,64.2l-24.1,24.1c-5.5,5.5-2,14.9,5.8,15.7l97.5,10.3C283.8,324.4,288.6,319.6,288,313.9z"/>
	<g>
		<path class="st1" d="M119.4,181.4l26.2-26.2c5.7-5.7,13.4-8.9,21.5-8.9c8.2,0,15.9,3.2,21.7,9l13.9,13.9
			C192.3,111,138,36.4,113.9,5.6c-5.8-7.5-17.1-7.5-23,0C64.1,39.6-0.3,127.6,0,187.5c0.3,58.5,45.8,105.8,102.3,105.8
			c23.9,0,45.8-8.5,63.2-22.8l-46-46C107.6,212.6,107.5,193.2,119.4,181.4z"/>
	</g>
	<polygon class="st0" points="398.5,345.2 430.1,313.5 470.4,273.3 503.3,240.4 481.5,218.7 427,273.3 386.7,313.5 355,345.2 
		314.7,385.5 283.1,417.1 242.8,457.4 209.9,490.3 231.7,512 286.2,457.4 326.5,417.1 358.2,385.5 	"/>
	<path class="st2" d="M324.8,345.2H221.3c-11.1,0-20.1,9-20.1,20.1c0,11.1,9,20.1,20.1,20.1h63.2l15.1-15.1L324.8,345.2z"/>
	<path class="st2" d="M388.3,385.5h103.5c11.1,0,20.1-9,20.1-20.1c0-11.1-9-20.1-20.1-20.1h-63.2l-15.1,15.1L388.3,385.5z"/>
	<path class="st1" d="M460.3,313.5h31.6c11.1,0,20.1-9,20.1-20.1v0c0-8.5-5.3-15.8-12.8-18.7l-13.7,13.7L460.3,313.5z"/>
	<path class="st1" d="M396.8,273.3h-91.6l4,38.4c0.1,0.6,0,1.3,0,1.9h47.3l15.1-15.1L396.8,273.3z"/>
	<path class="st3" d="M316.4,457.4h175.5c11.1,0,20.1-9,20.1-20.1c0-11.1-9-20.1-20.1-20.1H356.7l-15.1,15.1L316.4,457.4z"/>
	<path class="st3" d="M252.9,417.1h-31.6c-11.1,0-20.1,9-20.1,20.1c0,8.5,5.3,15.8,12.8,18.7l13.7-13.7L252.9,417.1z"/>
</g>
</svg>
