<?xml version="1.0" encoding="utf-8"?>
<!-- Generator: Adobe Illustrator 21.0.0, SVG Export Plug-In . SVG Version: 6.00 Build 0)  -->
<svg version="1.1" id="Layer_1" xmlns="http://www.w3.org/2000/svg" xmlns:xlink="http://www.w3.org/1999/xlink" x="0px" y="0px"
	 viewBox="0 0 480 320" style="enable-background:new 0 0 480 320;" xml:space="preserve">
<style type="text/css">
	.st0{opacity:0.1;fill:#8AA4B1;enable-background:new    ;}
	.st1{fill:#8AA4B1;fill-opacity:0.2;}
	.st2{fill:#FFFFFF;}
	.st3{fill:#0090C5;}
	.st4{fill:#6BC200;}
</style>
<path class="st0" d="M475,0H5C2.2,0,0,2.2,0,5v310c0,2.8,2.2,5,5,5h470c2.8,0,5-2.2,5-5V5C480,2.2,477.8,0,475,0L475,0z"/>
<path class="st1" d="M480,32.7H0V5c0-2.8,2.2-5,5-5h470c2.8,0,5,2.2,5,5V32.7z"/>
<path class="st1" d="M475,319.7H5c-2.8,0-5-2.2-5-5v-55.6h480v55.6C480,317.4,477.8,319.7,475,319.7z"/>
<path class="st2" d="M475,2c1.7,0,3,1.3,3,3v310c0,1.7-1.3,3-3,3H5c-1.7,0-3-1.3-3-3V5c0-1.7,1.3-3,3-3H475 M475,0H5
	C2.2,0,0,2.2,0,5v310c0,2.8,2.2,5,5,5h470c2.8,0,5-2.2,5-5V5C480,2.2,477.8,0,475,0L475,0z"/>
<g>
	<rect x="23" y="105.9" class="st2" width="75.4" height="1.6"/>
	<rect x="23" y="205.6" class="st2" width="75.4" height="1.6"/>
	<rect x="23" y="81" class="st2" width="75.4" height="1.6"/>
	<rect x="23" y="56.4" class="st2" width="75.4" height="1.6"/>
	<rect x="38.6" y="130.8" class="st2" width="59.8" height="1.6"/>
	<rect x="38.6" y="155.7" class="st2" width="59.8" height="1.6"/>
	<rect x="38.6" y="230.5" class="st2" width="59.8" height="1.6"/>
	<rect x="38.6" y="180.6" class="st2" width="59.8" height="1.6"/>
</g>
<rect x="160.1" y="56.4" class="st2" width="160.1" height="9.3"/>
<rect x="164.1" y="86.9" class="st2" width="65.7" height="3.1"/>
<path class="st3" d="M308,129.9H171.9c-7.2,0-13.4-5.9-13.4-13.4s5.9-13.4,13.4-13.4H308c7.2,0,13.4,5.9,13.4,13.4
	S315.5,129.9,308,129.9z M171.9,105.6c-5.9,0-10.9,5-10.9,10.9s5,10.9,10.9,10.9H308c5.9,0,10.9-5,10.9-10.9s-5-10.9-10.9-10.9
	H171.9z"/>
<rect x="164.1" y="152" class="st2" width="65.7" height="3.1"/>
<path class="st3" d="M308,228H171.9c-7.2,0-13.4-5.9-13.4-13.4s5.9-13.4,13.4-13.4H308c7.2,0,13.4,5.9,13.4,13.4S315.5,228,308,228z
	 M171.9,204c-5.9,0-10.9,5-10.9,10.9s5,10.9,10.9,10.9H308c5.9,0,10.9-5,10.9-10.9s-5-10.9-10.9-10.9H171.9z"/>
<path class="st4" d="M308,194.7H171.9c-7.2,0-13.4-5.9-13.4-13.4s5.9-13.4,13.4-13.4H308c7.2,0,13.4,5.9,13.4,13.4
	S315.5,194.7,308,194.7z M171.9,170.7c-5.9,0-10.9,5-10.9,10.9s5,10.9,10.9,10.9H308c5.9,0,10.9-5,10.9-10.9s-5-10.9-10.9-10.9
	H171.9z"/>
</svg>
