<?xml version="1.0" encoding="utf-8"?>
<!-- Generator: Adobe Illustrator 25.0.1, SVG Export Plug-In . SVG Version: 6.00 Build 0)  -->
<svg version="1.1" id="Layer_1" xmlns="http://www.w3.org/2000/svg" xmlns:xlink="http://www.w3.org/1999/xlink" x="0px" y="0px"
	 viewBox="0 0 115 115" style="enable-background:new 0 0 115 115;" xml:space="preserve">
<style type="text/css">
	.st0{fill:#75787A;}
	.st1{fill:#FFFFFF;}
	.st2{fill:#0090C5;}
	.st3{fill:#6BC200;}
	.st4{fill:#9F7AD1;}
	.st5{fill:#97DC42;}
</style>
<path class="st0" d="M57.5,113.509c-30.878,0-56-25.122-56-56s25.122-56,56-56c30.878,0,56,25.122,56,56
	S88.378,113.509,57.5,113.509z M57.5,3.491c-29.785,0-54.017,24.232-54.017,54.017s24.232,54.017,54.017,54.017
	c29.785,0,54.017-24.232,54.017-54.017S87.285,3.491,57.5,3.491z"/>
<path class="st1" d="M55.287,35v-3.75c0-2.063-1.687-3.75-3.75-3.75h-7.5c-2.063,0-3.75,1.687-3.75,3.75V35h-7.5v7.5h30V35H55.287z
	 M51.537,35h-7.5v-3.743l0.007-0.007h7.487c0.002,0.002,0.005,0.004,0.007,0.007L51.537,35z"/>
<g>
	<path class="st1" d="M70.287,50.055v-13.18c0-1.031-0.844-1.875-1.875-1.875H67.33v18.012L70.287,50.055z"/>
	<path class="st1" d="M67.33,72.716v11.695H28.376V35h-1.214c-1.031,0-1.875,0.844-1.875,1.875v48.75
		c0,1.031,0.844,1.875,1.875,1.875h41.25c1.031,0,1.875-0.844,1.875-1.875V69.759L67.33,72.716z"/>
</g>
<g>
	<polygon class="st2" points="53.737,51.16 55.94,53.362 60.645,53.362 60.645,51.073 53.65,51.073 	"/>
	<polygon class="st2" points="48.052,51.16 48.139,51.073 34.929,51.073 34.929,53.362 45.85,53.362 	"/>
</g>
<polygon class="st3" points="43.886,61.012 42.738,59.864 34.929,59.864 34.929,62.153 45.027,62.153 "/>
<polygon class="st4" points="51.529,68.655 34.929,68.655 34.929,70.945 53.819,70.945 "/>
<g>
	<polygon class="st5" points="61.46,72.901 46.729,58.169 50.895,54.003 61.46,64.568 86.756,39.271 90.922,43.438 	"/>
</g>
</svg>
