<?xml version="1.0" encoding="utf-8"?>
<!-- Generator: Adobe Illustrator 19.2.0, SVG Export Plug-In . SVG Version: 6.00 Build 0)  -->
<svg version="1.1" xmlns="http://www.w3.org/2000/svg" xmlns:xlink="http://www.w3.org/1999/xlink" x="0px" y="0px"
	 viewBox="0 0 112 112" style="enable-background:new 0 0 112 112;" xml:space="preserve">
<style type="text/css">
	.st0{fill:#75787A;}
	.st1{fill:#8F9395;}
	.st2{fill:#FFFFFF;}
</style>
<g id="Layer_3">
	<path class="st0" d="M56,112C25.1,112,0,86.9,0,56S25.1,0,56,0c30.9,0,56,25.1,56,56S86.9,112,56,112z M56,2C26.2,2,2,26.2,2,56
		s24.2,54,54,54c29.8,0,54-24.2,54-54S85.8,2,56,2z"/>
</g>
<g id="Nav">
	<g>
		<g>
			<ellipse class="st1" cx="32" cy="54.2" rx="6.6" ry="7.8"/>
			<ellipse class="st1" cx="78" cy="54.2" rx="6.6" ry="7.8"/>
			<path class="st1" d="M31.7,66.1c-2.2,0-4.3-0.8-6-2.2c-3.6,0.3-7.3,1.9-8.7,4.7c-0.3,0.6-0.4,1.5-0.4,2.3v1.5h12.3
				c0.1-1.1,0.3-2.5,0.9-3.7C30.3,67.8,30.9,66.9,31.7,66.1z"/>
			<path class="st1" d="M93.6,71c0-0.8-0.1-1.7-0.4-2.3c-1.4-2.8-5.1-4.4-8.7-4.7c-1.7,1.3-3.8,2.1-6,2.2c0.8,0.8,1.4,1.7,1.9,2.7
				c0.6,1.2,0.8,2.6,0.9,3.7h12.3V71z"/>
			<g>
				<path class="st2" d="M76.9,70.7c-2.2-4.2-7.6-6.6-13.1-7c-2.6,2.1-5.8,3.3-9.3,3.3s-6.6-1.2-9.3-3.3c-5.5,0.4-10.9,2.8-13.1,7
					c-0.4,0.9-0.6,2.3-0.6,3.5v2.3h23h23v-2.3C77.6,72.9,77.4,71.6,76.9,70.7z"/>
				<ellipse class="st2" cx="55" cy="48.5" rx="9.9" ry="11.8"/>
			</g>
		</g>
	</g>
</g>
</svg>
