<?xml version="1.0" encoding="utf-8"?>
<!-- Generator: Adobe Illustrator 25.0.1, SVG Export Plug-In . SVG Version: 6.00 Build 0)  -->
<svg version="1.1" id="Layer_1" xmlns="http://www.w3.org/2000/svg" xmlns:xlink="http://www.w3.org/1999/xlink" x="0px" y="0px"
	 viewBox="0 0 115 115" style="enable-background:new 0 0 115 115;" xml:space="preserve">
<style type="text/css">
	.st0{fill:#75787A;}
	.st1{fill:#0090C5;}
	.st2{fill:#6BC200;}
	.st3{fill:#9F7AD1;}
	.st4{fill:#FFFFFF;}
</style>
<path class="st0" d="M57.5,113.509c-30.878,0-56-25.122-56-56s25.122-56,56-56c30.878,0,56,25.122,56,56
	S88.378,113.509,57.5,113.509z M57.5,3.491c-29.785,0-54.017,24.232-54.017,54.017s24.232,54.017,54.017,54.017
	c29.785,0,54.017-24.232,54.017-54.017S87.285,3.491,57.5,3.491z"/>
<rect x="34.929" y="51.073" class="st1" width="25.716" height="2.289"/>
<path class="st2" d="M58.056,61.061c0.038-0.408,0.136-0.806,0.264-1.197H34.929v2.289h22.963L58.056,61.061z"/>
<path class="st3" d="M56.728,70.252c0-0.228,0.017-0.456,0.051-0.682l0.137-0.915H34.929v2.289h21.84
	C56.744,70.715,56.728,70.485,56.728,70.252z"/>
<g>
	<path class="st4" d="M55.287,35v-3.75c0-2.063-1.687-3.75-3.75-3.75h-7.5c-2.063,0-3.75,1.687-3.75,3.75V35h-7.5v7.5h30V35H55.287z
		 M51.537,35h-7.5v-3.743l0.007-0.007h7.487c0.002,0.002,0.005,0.004,0.007,0.007L51.537,35z"/>
	<g>
		<path class="st4" d="M67.33,75.835v8.576H28.376V35h-1.214c-1.031,0-1.875,0.844-1.875,1.875v48.75
			c0,1.031,0.844,1.875,1.875,1.875h41.25c1.031,0,1.875-0.844,1.875-1.875V75.391L67.33,75.835z"/>
		<path class="st4" d="M70.287,46.965v-10.09c0-1.031-0.844-1.875-1.875-1.875H67.33v14.922L70.287,46.965z"/>
	</g>
</g>
<g>
	<path class="st4" d="M90.899,36.912c-1.161-1.161-3.044-1.161-4.058,0L66.546,57.206l0,0l-3.48,3.48
		c-0.289,0.289-0.436,0.58-0.436,0.869l-1.305,8.696c0,0.436,0.145,0.869,0.436,1.161c0.291,0.291,0.58,0.436,1.014,0.436h0.145
		l8.697-1.305c0.289,0,0.58-0.145,0.87-0.436l3.48-3.48l0,0l20.295-20.294c1.161-1.161,1.161-2.899,0-4.058l-5.364-5.363H90.899z
		 M94.09,44.448l-2.9,2.899l-5.364-5.363l2.9-2.899L94.09,44.448z M76.839,61.698l-2.9,2.899l-5.364-5.363l15.221-15.22l5.364,5.363
		l0,0L76.839,61.698z M70.75,67.786l-6.233,0.869l0.869-6.233l1.161-1.161l5.364,5.363l0,0L70.75,67.786z"/>
</g>
</svg>
