<?xml version="1.0" encoding="utf-8"?>
<!-- Generator: Adobe Illustrator 24.2.3, SVG Export Plug-In . SVG Version: 6.00 Build 0)  -->
<svg version="1.1" id="Layer_1" xmlns="http://www.w3.org/2000/svg" xmlns:xlink="http://www.w3.org/1999/xlink" x="0px" y="0px"
	 viewBox="0 0 44 48" style="enable-background:new 0 0 44 48;" xml:space="preserve">
<style type="text/css">
	.st0{fill:#FFFFFF;}
	.st1{fill:#0090C5;}
</style>
<path class="st0" d="M9,25.001c0.552,0,1-0.447,1-1s-0.448-1-1-1H2v-4.25h3.8c0.276,0,0.5-0.224,0.5-0.5s-0.224-0.5-0.5-0.5H2v-4.75
	h3.8c0.276,0,0.5-0.224,0.5-0.5s-0.224-0.5-0.5-0.5H2V7.25h3.8c0.276,0,0.5-0.224,0.5-0.5s-0.224-0.5-0.5-0.5H2V2h7
	c0.552,0,1-0.447,1-1S9.552,0,9,0H1C0.448,0,0,0.447,0,1v46c0,0.553,0.448,1,1,1h8c0.552,0,1-0.447,1-1s-0.448-1-1-1H2v-4.248h3.8
	c0.276,0,0.5-0.224,0.5-0.5s-0.224-0.5-0.5-0.5H2v-4.75h3.8c0.276,0,0.5-0.224,0.5-0.5s-0.224-0.5-0.5-0.5H2v-4.751h3.8
	c0.276,0,0.5-0.224,0.5-0.5s-0.224-0.5-0.5-0.5H2v-4.25H9z"/>
<g>
	<path class="st1" d="M41.347,15.104c0.42,0.852,0.653,1.76,0.653,2.704c0,4.814-5.901,8.73-13.154,8.73
		c-6.344,0-9.616-1.779-9.616-2.538s3.271-2.538,9.616-2.538c2.658,0,5.13,0.53,7.201,1.433c0.716-0.372,1.356-0.795,1.902-1.261
		c-2.538-1.357-5.684-2.172-9.102-2.172c-5.772,0-11.616,1.559-11.616,4.538s5.843,4.538,11.616,4.538
		c8.356,0,15.154-4.813,15.154-10.73c0-1.365-0.376-2.667-1.035-3.869C42.477,14.353,41.935,14.741,41.347,15.104z"/>
	<path class="st1" d="M28.846,9.077c2.911,0,5.596,0.639,7.777,1.706c0.849-0.343,1.557-0.719,2.097-1.097
		c-2.655-1.621-6.102-2.608-9.874-2.608c-5.772,0-11.616,1.559-11.616,4.538s5.843,4.539,11.616,4.539
		C37.344,16.154,44,12.606,44,8.077S37.344,0,28.846,0H18.23c-0.552,0-1,0.447-1,1s0.448,1,1,1h10.616C36.714,2,42,5.143,42,8.077
		s-5.286,6.077-13.154,6.077c-6.344,0-9.616-1.779-9.616-2.539C19.23,10.856,22.502,9.077,28.846,9.077z"/>
	<path class="st1" d="M41.69,38.695c0.198,0.408,0.31,0.82,0.31,1.228C42,42.857,36.714,46,28.846,46H18.23c-0.552,0-1,0.447-1,1
		s0.448,1,1,1h10.616C37.344,48,44,44.452,44,39.923c0-0.934-0.297-1.823-0.821-2.652C42.731,37.775,42.228,38.246,41.69,38.695z"/>
	<path class="st1" d="M41.004,26.868C41.643,27.893,42,29.015,42,30.192c0,4.814-5.901,8.73-13.154,8.73
		c-6.344,0-9.616-1.779-9.616-2.538c0-0.76,3.271-2.539,9.616-2.539c2.979,0,5.586,0.452,7.678,1.171
		c0.72-0.418,1.345-0.892,1.863-1.409c-2.589-1.105-5.893-1.763-9.542-1.763c-5.772,0-11.616,1.56-11.616,4.539
		s5.843,4.538,11.616,4.538c8.356,0,15.154-4.813,15.154-10.73c0-1.654-0.547-3.216-1.495-4.617
		C42.039,26.03,41.547,26.466,41.004,26.868z"/>
</g>
</svg>
