<?xml version="1.0" encoding="utf-8"?>
<!-- Generator: Adobe Illustrator 21.1.0, SVG Export Plug-In . SVG Version: 6.00 Build 0)  -->
<svg version="1.1" id="Layer_1" xmlns="http://www.w3.org/2000/svg" xmlns:xlink="http://www.w3.org/1999/xlink" x="0px" y="0px"
	 viewBox="0 0 1158.6 103.6" style="enable-background:new 0 0 1158.6 103.6;" xml:space="preserve">
<style type="text/css">
	.st0{fill:#E76D25;}
	.st1{fill:#FFFFFF;}
</style>
<g>
	<path class="st0" d="M101.3,1c8.4,0,14.7,6.8,13.2,15.3l-0.5,2.5L103.1,80H82.2l10.6-59.5c0.3-2-1-3.5-3-3.5H76.2
		c-2,0-3.2,1.5-3.5,3.4L62.2,80H41l10.6-59.6c0.4-2-0.9-3.4-2.9-3.4l0,0H35.1H35c-2,0-3.3,1.5-3.6,3.4L20.8,80H0L14.2,0h20.2
		l-0.5,3.5c0,0,1.6-1.6,3.7-2.1C38.8,0.8,42.1,1,42.1,1h56.5H101.3z M217.5,16.1C218.9,7.8,212.6,1,204.3,1h-59.2
		c-8.4,0-17.1,6.9-18.6,15.3L118,64.8c-1.5,8.5,4.8,15.3,13.2,15.3h21h53.1l2.8-16l-62.7,0.1l-2.6-0.3c-2,0-3.3-0.9-3-2.9l6.9-39.4
		c0.4-2,1.6-3.4,3.5-3.4l2.2-0.1c0,0,18.2,0,30.5,0h9.6c2,0,3.3,0.9,2.9,2.9l-1.8,10.3c-0.4,1.9-1.9,2.9-3.9,2.9h-5.8
		c-2.5,0-31.3,0-31.3,0L150,50h26.1h19.6c8.4,0,16.9-6.7,18.4-15L217.5,16.1z M323.9,16.3C325.4,7.8,319,1,310.6,1h-12
		c-9.2,0-65.2,0-65.2,0l-13.8,79H240l11-62c0,0,29.7,0,40.9,0h6.6c2,0,3.2,0.9,3,2.9l-7.1,40.3c-0.4,1.9-1.9,2.9-3.9,2.9h-7.3
		c-8.2,0-30.8,0-30.8,0l-2.6,15l40.1,1l6.9,0.1c8.4,0,17.2-6.9,18.7-15.4L323.9,16.3z M646.1,16.3C647.6,7.9,641.3,1,632.8,1l-12,1
		h-65.4l-13.6,78h20.4l10.9-62c0,0,29.8,0,41,0h6.6c1.9,0,3.2,0.9,2.9,2.9l-7.1,40.3c-0.3,1.9-1.9,2.9-3.9,2.9h-6.1
		c-8.8,0-33.2,0-33.2,0l-2.8,16H612h6.8c8.5,0,17.3-6.8,18.7-15.2L646.1,16.3z M431.6,16.1C433.1,7.8,426.9,1,418.5,1h-8.4
		l-69.8,0.1l-14,78.9h20.5l10.9-62h35.7h12.8c1.9,0,3.2,0.9,2.9,2.8l-1.9,10.4c-0.4,1.9-1.9,2.8-3.8,2.8h-7.1h-31.5L362,50h18l20,30
		h21.9l-18.8-30h3.4h3.5c8.3,0,17-6.8,18.4-15.1L431.6,16.1z M467.3,64c10,0,41.5,0,41.5,0s4.5-26.2,6-34.6l1.5-8.5
		c0.4-1.9-0.9-2.9-2.9-2.9h-4.3c-5.3,0-62.8,0-62.8,0l2.9-17c0,0,58,0.2,68.2,0h7.7c8.5,0,14.9,7,13.4,15.5L537,25
		c-1.9,10.3-9.8,56-9.8,56s-54.6,0-63.6,0L452,80.9c-8.5,0-14.9-6.9-13.4-15.3l3.4-19.1C443.5,38,452.2,31,460.8,31h4.7
		c5.1,0,41.1,0,41.1,0l-2.8,16c0,0-27.6,0-30.3,0h-6c-1.9,0-3.6,0.9-4,2.9l-2,11.1c-0.3,2,0.9,2.9,3,2.9L467.3,64L467.3,64z
		 M672.1,16h3c2.6,0,4.9-0.1,4.9-3.1c0-2.5-2.1-2.9-4.1-2.9H672L672.1,16L672.1,16z M669.1,8h7.5c4.6,0,6.8,1.7,6.8,5.1
		c0,3.3-2.3,4.6-5.1,4.9l5.5,8h-3.5l-5.1-8h-3.1v8h-3L669.1,8L669.1,8z M675.4,29.7c7,0,12.5-5.6,12.5-13.2c0-7.3-5.5-13-12.6-13
		s-12.6,5.7-12.6,13C662.7,24.1,668.2,29.7,675.4,29.7L675.4,29.7z M675.4,1.3c8.3,0,15.3,6.6,15.3,15.2c0,8.9-7,15.5-15.4,15.5
		s-15.4-6.6-15.4-15.5C659.9,7.9,666.9,1.3,675.4,1.3L675.4,1.3z"/>
	<path class="st1" d="M786.1,26c-0.5-4.1-1.8-7.8-3.7-10.9s-4.2-5.8-7.1-7.9c-2.8-2.1-6.2-3.8-9.7-4.8c-3.6-1.1-7.3-1.7-11.5-1.7
		c-4.8,0-9.1,0.7-13,2.1c-4,1.4-7.4,3.3-10.3,5.8c-2.9,2.5-5.4,5.4-7.4,8.9c-2,3.4-3.5,7.1-4.5,11.2c-1,4-1.6,8.4-1.6,12.9
		c0,4.6,0.5,8.8,1.5,12.9c0.9,4.1,2.4,7.8,4.2,11.1c1.9,3.4,4.3,6.3,7.2,8.7c2.8,2.5,6.2,4.4,10,5.7c3.9,1.4,8.2,2,13,2
		c6.5,0,12.2-1.3,17-3.8s8.5-6,11.4-10.7c2.8-4.6,4.5-10.2,5.2-16.6h-10.4c-0.3,3.2-0.9,6.2-2,8.9c-1,2.8-2.6,5.1-4.4,7.1
		c-1.9,2-4.2,3.6-6.9,4.7s-5.7,1.7-9.1,1.7c-3.7,0-7-0.6-9.8-1.7c-2.9-1.1-5.4-2.6-7.4-4.6c-2.1-2-3.9-4.4-5.1-7.1
		c-1.4-2.8-2.4-5.7-3-8.9s-0.9-6.6-0.9-10.2c0-3.3,0.3-6.4,0.9-9.6c0.6-3,1.7-5.9,3-8.5c1.3-2.7,3-5,5.1-7c2.1-1.9,4.6-3.5,7.4-4.7
		c2.8-1.1,6.2-1.7,9.8-1.7c3.7,0,6.9,0.6,9.9,1.8s5.6,3,7.6,5.5s3.5,5.5,4.2,9.2h10.4V26z M837.4,62c-0.8,4.2-2.5,7-5.1,8.8
		c-2.5,1.8-5.7,2.8-9.5,2.8c-3.1,0-5.8-0.6-8-1.6c-2.2-0.9-4.1-2.3-5.5-4.1c-1.5-1.8-2.5-3.7-3.1-5.9c-0.7-2.2-1-4.6-0.9-7.1h42.2
		c0.1-2.2,0-4.6-0.3-7.1c-0.4-2.4-0.9-4.9-1.7-7.3c-0.7-2.4-1.8-4.7-3.1-6.8s-3-4.1-4.8-5.7c-1.9-1.7-4.2-3-6.8-3.9
		s-5.5-1.5-8.9-1.5c-3.9,0-7.4,0.7-10.6,2.2c-3.2,1.5-6.1,3.5-8.4,6.2c-2.4,2.6-4.2,5.7-5.5,9.2c-1.3,3.6-1.9,7.5-1.9,11.8
		c0.1,4.3,0.7,8.3,1.8,11.9c1.2,3.6,2.9,6.7,5.1,9.4c2.2,2.6,5.1,4.7,8.4,6.1c3.3,1.5,7.2,2.2,11.7,2.2c4.2,0,8-0.7,11.3-2.2
		s6.1-3.6,8.2-6.5c2.2-2.9,3.7-6.4,4.6-11L837.4,62L837.4,62z M805.2,47c0.2-2.2,0.6-4.2,1.5-6.2c0.7-1.8,1.8-3.6,3.2-5.1
		s2.9-2.6,4.9-3.4c1.9-0.8,4.2-1.3,6.6-1.3c2.3,0,4.4,0.4,6.4,1.2c1.9,0.8,3.6,2,5.1,3.4c1.4,1.5,2.6,3.1,3.4,5.1
		c0.8,1.9,1.3,4.1,1.5,6.3H805.2z M857.1,81h9V49.2c0-2.6,0.4-4.9,1-7.1c0.6-2.1,1.7-4,3.1-5.5c1.4-1.7,3.1-2.9,5.1-3.8
		c2.1-0.8,4.6-1.3,7.3-1.3c2.4,0,4.4,0.5,6.1,1.4c1.7,0.9,3,2.3,3.9,4s1.4,3.7,1.4,6V81h10V43.5c0-3.1-0.4-5.9-0.9-8.4
		c-0.7-2.6-1.8-4.8-3.2-6.6c-1.5-1.9-3.5-3.4-6-4.3c-2.5-1-5.6-1.6-9.3-1.6c-4.1,0-7.7,0.8-10.7,2.5c-3.1,1.8-5.6,4.4-7.7,7.8H866
		v-9h-9V81H857.1z M931.1,7h-10v17h-10v8h10v35.8c0,2.6,0.3,4.6,0.8,6.2c0.6,1.7,1.3,2.8,2.4,3.8c1.1,0.8,2.5,1.5,4.2,1.7
		c1.8,0.4,3.9,0.5,6.3,0.5h7.3v-8H938c-1.9,0-3.3-0.2-4.3-0.4c-1-0.3-1.6-0.7-2-1.5c-0.4-0.7-0.5-1.8-0.5-3.2V32h11v-8h-11V7H931.1z
		 M987.1,60.8c0,1.3-0.3,2.7-1,4.2c-0.6,1.5-1.7,2.9-3,4.2c-1.4,1.3-3.1,2.4-5.3,3.2c-2.2,0.8-4.8,1.3-7.8,1.3
		c-1.9,0-3.7-0.3-5.4-0.8c-1.7-0.6-2.9-1.4-4.1-2.6c-1-1.3-1.5-2.9-1.5-4.9c0-2.3,0.5-4.2,1.6-5.4c1-1.4,2.4-2.4,4.1-3.1
		c1.8-0.7,3.6-1.3,5.7-1.6c2-0.4,4.2-0.6,6.3-0.9c2.1-0.3,4.1-0.6,5.9-1c1.8-0.5,3.4-1,4.6-1.9L987.1,60.8L987.1,60.8z M1002.1,73.5
		c-0.6,0.2-1.1,0.4-1.6,0.5c-0.5,0-0.9,0.1-1.3,0.1c-1,0-1.7-0.3-2.1-0.7c-0.5-0.5-0.7-1.1-0.8-2s-0.2-2.1-0.2-3.6V38.6
		c0-2.6-0.4-4.8-1.2-6.6c-0.9-1.8-1.9-3.3-3.4-4.5c-1.4-1.1-3-2-4.9-2.7c-1.8-0.6-3.8-1.1-5.9-1.3c-2.1-0.3-4.2-0.4-6.3-0.4
		c-3.2,0-6.4,0.4-9.2,1c-2.9,0.6-5.5,1.8-7.7,3.2c-2.3,1.5-4.1,3.4-5.4,5.8c-1.4,2.4-2.2,5.4-2.3,8.9h9.5c0.2-2.8,1-4.9,2.2-6.5
		s2.9-2.7,5.1-3.3c2.1-0.6,4.5-0.9,7.2-0.9c1.5,0,3,0.1,4.6,0.4c1.5,0.2,2.9,0.6,4.2,1.3c1.2,0.6,2.3,1.6,3,2.9
		c0.8,1.2,1.1,2.9,1.1,4.9c0,1.7-0.6,3-1.6,4c-1,0.9-2.4,1.6-4.2,2c-1.8,0.5-3.9,0.8-6.3,1.1c-2.3,0.3-4.9,0.7-7.5,1.2
		c-2.5,0.4-4.9,1-7.2,1.7c-2.4,0.7-4.5,1.7-6.4,2.9c-1.8,1.3-3.3,3-4.4,5c-1.1,2-1.7,4.7-1.7,7.8c0,2.8,0.6,5.2,1.5,7.2
		c1,2,2.4,3.7,4.2,4.9c1.7,1.3,3.7,2.2,6.1,2.9c2.3,0.6,4.8,0.8,7.4,0.8c4.1,0.1,7.9-0.6,11.3-2c3.5-1.5,6.6-3.7,9.2-6.6
		c0,3,0.8,5.3,2.2,6.6s3.4,2.1,5.9,2c1.5,0,2.9-0.1,3.9-0.4c1.1-0.3,2.2-0.6,3-1.1L1002.1,73.5L1002.1,73.5z M1010.1,80h10V54.9
		c0-4.8,0.6-8.9,1.9-12.3c1.4-3.4,3.4-6,6.4-7.8c2.9-1.8,6.8-2.7,11.7-2.7v-9.3c-3.3-0.1-6.3,0.4-8.9,1.3s-4.8,2.4-6.8,4.4
		c-1.9,1.9-3.7,4.5-5.2,7.5h-0.2V24h-9v56H1010.1z M1066.7,73c-2.5-0.1-4.5-0.5-6.4-1.3c-1.8-0.8-3.3-1.9-4.5-3.4
		c-1.3-1.4-2.2-3-3-4.9c-0.7-1.8-1.3-3.8-1.7-5.8c-0.3-2-0.5-4.1-0.5-6.2c0-2.7,0.3-5.3,0.9-7.8c0.6-2.4,1.7-4.6,3-6.6
		c1.4-1.8,3-3.4,5.2-4.5c2.1-1.1,4.7-1.7,7.7-1.7c2.9,0,5.4,0.6,7.5,1.8c2,1.1,3.7,2.7,5,4.6c1.2,1.9,2.1,4.1,2.8,6.5
		c0.6,2.4,0.8,4.9,0.8,7.4c0,2.1-0.2,4.2-0.6,6.4c-0.4,2-1,4.1-1.8,5.9c-0.8,1.8-1.8,3.5-3.2,4.9c-1.3,1.5-2.9,2.6-4.7,3.4
		C1071.3,72.5,1069.1,72.9,1066.7,73L1066.7,73z M1093.1,24h-9v8h-0.1c-1.2-2.1-2.6-3.8-4.4-5.2c-1.7-1.4-3.6-2.5-5.8-3.2
		c-2.1-0.7-4.5-1.1-6.9-1.1c-3.9,0-7.3,0.6-10.2,1.9c-3,1.2-5.5,2.8-7.5,4.8s-3.6,4.4-4.9,7c-1.2,2.6-2.1,5.3-2.7,8.1
		c-0.6,2.9-0.8,5.6-0.8,8.3c0,3.9,0.5,7.6,1.6,11c1,3.4,2.6,6.5,4.7,9.2c2.1,2.6,4.7,4.7,7.9,6.2c3.3,1.6,6.9,2.3,11.1,2.3
		c2.4,0,4.7-0.4,7.1-1.1c2.3-0.7,4.4-1.9,6.3-3.4c1.8-1.5,3.3-3.4,4.4-5.8h0.2v3.7c0,4.3-0.6,8.1-1.7,11.2c-1.2,3.2-3.1,5.7-5.7,7.6
		c-2.6,1.8-5.9,2.7-10,2.7c-1.5,0-3.2-0.1-4.9-0.5c-1.7-0.3-3.2-0.8-4.7-1.6c-1.5-0.7-2.7-1.7-3.7-2.9c-0.9-1.1-1.5-2.6-1.6-4.3
		h-9.6c0.2,2.5,0.8,4.6,1.7,6.5c0.9,1.8,2.3,3.4,3.9,4.7c1.6,1.3,3.4,2.3,5.4,3.1c2.1,0.8,4.2,1.4,6.4,1.8c2.2,0.4,4.4,0.6,6.5,0.6
		c9.2,0,15.9-2.4,20.4-7c4.4-4.6,6.6-11.6,6.6-20.8L1093.1,24L1093.1,24z M1103.6,52.3c0,4.2,0.6,8,1.8,11.5c1.2,3.6,3,6.7,5.3,9.4
		s5.2,4.7,8.6,6.3c3.4,1.5,7.3,2.2,11.8,2.2s8.4-0.7,11.8-2.2c3.4-1.6,6.3-3.6,8.6-6.3c2.3-2.7,4.1-5.8,5.3-9.4
		c1.2-3.5,1.8-7.4,1.8-11.5c0-4.2-0.6-8-1.8-11.6c-1.2-3.6-2.9-6.7-5.3-9.4c-2.3-2.7-5.2-4.8-8.6-6.3s-7.3-2.3-11.8-2.3
		s-8.4,0.8-11.8,2.3s-6.3,3.6-8.6,6.3c-2.3,2.7-4.1,5.8-5.3,9.4S1103.6,48.1,1103.6,52.3L1103.6,52.3z M1113.4,52.3
		c0.1-3.4,0.6-6.5,1.4-9.1c0.9-2.7,2.2-4.9,3.8-6.7c1.7-1.8,3.5-3.2,5.6-4.2c2.1-0.9,4.4-1.4,6.8-1.4s4.7,0.5,6.8,1.4
		c2.1,0.9,4,2.3,5.6,4.2c1.6,1.8,2.9,4.1,3.8,6.7c0.8,2.7,1.3,5.7,1.4,9.1c-0.1,3.4-0.6,6.5-1.4,9c-0.9,2.7-2.2,4.9-3.8,6.7
		c-1.7,1.8-3.5,3.1-5.6,4.2c-2.1,0.9-4.4,1.4-6.8,1.4s-4.7-0.5-6.8-1.4c-2.1-1-4-2.4-5.6-4.2c-1.6-1.8-2.9-4.1-3.8-6.7
		C1113.9,58.7,1113.5,55.7,1113.4,52.3L1113.4,52.3z"/>
</g>
</svg>
