<?xml version="1.0" encoding="utf-8"?>
<!-- Generator: Adobe Illustrator 21.0.0, SVG Export Plug-In . SVG Version: 6.00 Build 0)  -->
<svg version="1.1" id="Layer_1" xmlns="http://www.w3.org/2000/svg" xmlns:xlink="http://www.w3.org/1999/xlink" x="0px" y="0px"
	 viewBox="0 0 480 320" style="enable-background:new 0 0 480 320;" xml:space="preserve">
<style type="text/css">
	.st0{opacity:0.1;fill:#8AA4B1;enable-background:new    ;}
	.st1{fill:#8AA4B1;fill-opacity:0.2;}
	.st2{fill:#FFFFFF;}
	.st3{fill:#0090C5;}
	.st4{fill:#6BC200;}
	.st5{opacity:0.1;fill:#6BC200;enable-background:new    ;}
</style>
<path class="st0" d="M475,0H5C2.2,0,0,2.2,0,5v310c0,2.8,2.2,5,5,5h470c2.8,0,5-2.2,5-5V5C480,2.2,477.8,0,475,0L475,0z"/>
<path class="st1" d="M480,32.7H0V5c0-2.8,2.2-5,5-5h470c2.8,0,5,2.2,5,5V32.7z"/>
<rect x="29.3" y="56.4" class="st2" width="75.4" height="9.3"/>
<path class="st3" d="M140.5,125.2H31.8c-5,0-8.7-4-8.7-8.7l0,0c0-5,4-8.7,8.7-8.7h108.4c5,0,8.7,4,8.7,8.7l0,0
	C149.2,121.2,145.1,125.2,140.5,125.2z"/>
<rect x="198.7" y="224.7" class="st2" width="65.7" height="1.6"/>
<rect x="198.7" y="244.3" class="st2" width="44.5" height="1.6"/>
<rect x="289.4" y="224.7" class="st2" width="65.7" height="1.6"/>
<rect x="289.4" y="244.3" class="st2" width="44.5" height="1.6"/>
<path class="st4" d="M140.5,97.2H31.8c-5,0-8.7-4-8.7-8.7l0,0c0-5,4-8.7,8.7-8.7h108.4c5,0,8.7,4,8.7,8.7l0,0
	C149.2,93.4,145.1,97.2,140.5,97.2z"/>
<path class="st4" d="M198.7,209.6C198.4,209.6,198.4,209.6,198.7,209.6c-1.6-0.3-2.5-1.2-2.2-2.5c0-1.2,15.9-133.6,100.3-133.6
	h152.6c1.2,0,2.5,0.9,2.5,2.5s-0.9,2.5-2.5,2.5H296.8c-80.4,0-95.6,128-95.6,129.3C200.9,208.7,199.6,209.6,198.7,209.6z"/>
<rect x="173.2" y="32.7" class="st1" width="4" height="226.4"/>
<path class="st1" d="M475,319.7H5c-2.8,0-5-2.2-5-5v-55.6h480v55.6C480,317.4,477.8,319.7,475,319.7z"/>
<path class="st2" d="M475,2c1.7,0,3,1.3,3,3v310c0,1.7-1.3,3-3,3H5c-1.7,0-3-1.3-3-3V5c0-1.7,1.3-3,3-3H475 M475,0H5
	C2.2,0,0,2.2,0,5v310c0,2.8,2.2,5,5,5h470c2.8,0,5-2.2,5-5V5C480,2.2,477.8,0,475,0L475,0z"/>
<path class="st5" d="M198.7,209.6c0,0,15.2-133.7,98.1-133.7S451.9,76,451.9,76v133.6"/>
</svg>
