<?xml version="1.0" encoding="utf-8"?>
<!-- Generator: Adobe Illustrator 24.2.0, SVG Export Plug-In . SVG Version: 6.00 Build 0)  -->
<svg version="1.1" id="Layer_1" xmlns="http://www.w3.org/2000/svg" xmlns:xlink="http://www.w3.org/1999/xlink" x="0px" y="0px"
	 viewBox="0 0 45 28" style="enable-background:new 0 0 45 28;" xml:space="preserve">
<style type="text/css">
	.st0{fill:#FFFFFF;}
	.st1{fill:#9F7AD1;}
	.st2{fill:#6BC200;}
	.st3{fill:#0090C5;}
</style>
<g>
	<polygon class="st0" points="36.6,12 31.4,12 35.4,0 24.6,16 29.9,16 25.9,28 	"/>
</g>
<g>
	<path class="st0" d="M24.3,20h-3.5c-1.5,0.8-3.1,1.2-4.8,1.2c-2.4,0-4.6-0.9-6.5-2.3c-3.8,0.3-7.6,2-9.1,5C0.1,24.5,0,25.5,0,26.4
		V28h16.1h5.6l0.4-1.3L24.3,20z"/>
</g>
<g>
	<ellipse class="st0" cx="16.1" cy="8.3" rx="6.9" ry="8.3"/>
</g>
<path class="st1" d="M42,22h-7.6l-3.8,6H42c1.7,0,3-1.3,3-3S43.7,22,42,22z"/>
<path class="st2" d="M42,11L42,11l-3.8,6l3.8,0c1.7,0,3-1.3,3-3S43.7,11,42,11z"/>
<path class="st3" d="M39.6,0l-1.9,6H42c1.7,0,3-1.3,3-3c0-1.7-1.3-3-3-3L39.6,0z"/>
<path class="st2" d="M5.4,11H3c-1.7,0-3,1.3-3,3c0,1.4,1,2.6,2.3,2.9c1.4-0.8,3.1-1.3,4.8-1.6C6.3,14,5.7,12.5,5.4,11z"/>
<path class="st3" d="M30.6,0h-6.4c1.3,1.6,2.2,3.5,2.6,5.7L30.6,0z"/>
<path class="st3" d="M3,0C1.3,0,0,1.3,0,3c0,1.7,1.3,3,3,3h2.3C5.7,3.7,6.7,1.7,8,0H3z"/>
<polygon class="st3" points="37.7,6 37.7,5.8 37.6,6 "/>
</svg>
