<?xml version="1.0" encoding="utf-8"?>
<!-- Generator: Adobe Illustrator 19.2.0, SVG Export Plug-In . SVG Version: 6.00 Build 0)  -->
<svg version="1.1" xmlns="http://www.w3.org/2000/svg" xmlns:xlink="http://www.w3.org/1999/xlink" x="0px" y="0px"
	 viewBox="0 0 112 112" style="enable-background:new 0 0 112 112;" xml:space="preserve">
<style type="text/css">
	.st0{fill:#75787A;}
	.st1{fill:#FFFFFF;}
</style>
<g id="Layer_3">
	<path class="st0" d="M56,112C25.1,112,0,86.9,0,56S25.1,0,56,0c30.9,0,56,25.1,56,56S86.9,112,56,112z M56,2C26.2,2,2,26.2,2,56
		s24.2,54,54,54c29.8,0,54-24.2,54-54S85.8,2,56,2z"/>
</g>
<g id="Nav">
	<g>
		<g>
			<g>
				<path class="st1" d="M76.9,70.7c-2.2-4.2-7.6-6.6-13.1-7c-2.6,2.1-5.8,3.3-9.3,3.3s-6.6-1.2-9.3-3.3c-5.5,0.4-10.9,2.8-13.1,7
					c-0.4,0.9-0.6,2.3-0.6,3.5v2.3h23h23v-2.3C77.6,72.9,77.4,71.6,76.9,70.7z"/>
				<ellipse class="st1" cx="55" cy="48.5" rx="9.9" ry="11.8"/>
			</g>
		</g>
	</g>
</g>
</svg>
