<?xml version="1.0" encoding="utf-8"?>
<!-- Generator: Adobe Illustrator 21.1.0, SVG Export Plug-In . SVG Version: 6.00 Build 0)  -->
<svg version="1.1" id="Layer_1" xmlns="http://www.w3.org/2000/svg" xmlns:xlink="http://www.w3.org/1999/xlink" x="0px" y="0px"
	 viewBox="0 0 140 140" style="enable-background:new 0 0 140 140;" xml:space="preserve">
<style type="text/css">
	.st0{fill:#FFFFFF;}
	.st1{fill:#8AA4B1;}
</style>
<title>Twilight_Service</title>
<path class="st0" d="M113.2,37.6l-10.5,10.5L91.9,37.2l10.5-10.5c-1.5-0.4-3.1-0.7-4.7-0.8c-9.2,0.1-16.6,7.5-16.7,16.7
	c0.1,1.6,0.3,3.1,0.8,4.7L47.3,81.8c-1.5-0.4-3.1-0.7-4.7-0.8c-9.2,0.1-16.6,7.5-16.7,16.7c0.1,1.6,0.3,3.1,0.8,4.7l10.4-10.5
	l10.9,10.9l-10.5,10.5c1.5,0.4,3.1,0.7,4.7,0.8c9.2-0.1,16.6-7.5,16.7-16.7c-0.1-1.6-0.3-3.1-0.8-4.7l34.5-34.5
	c1.5,0.4,3.1,0.7,4.7,0.8c9.2-0.1,16.6-7.5,16.7-16.7C113.6,40.7,113.6,39.2,113.2,37.6"/>
<path class="st1" d="M70,0C31.3,0,0,31.3,0,70s31.3,70,70,70s70-31.3,70-70S108.7,0,70,0z M70,131.1c-33.7,0-61.1-27.3-61.1-61.1
	C8.9,36.3,36.3,8.9,70,8.9c33.7,0,61.1,27.3,61.1,61.1c0,33.7-27.2,61-60.9,61.1C70.1,131.1,70,131.1,70,131.1z"/>
</svg>
