<?xml version="1.0" encoding="utf-8"?>
<!-- Generator: Adobe Illustrator 23.0.2, SVG Export Plug-In . SVG Version: 6.00 Build 0)  -->
<svg version="1.1" id="Layer_1" xmlns="http://www.w3.org/2000/svg" xmlns:xlink="http://www.w3.org/1999/xlink" x="0px" y="0px"
	 viewBox="0 0 512 512" style="enable-background:new 0 0 512 512;" xml:space="preserve">
<style type="text/css">
	.st0{fill:#FFFFFF;}
	.st1{fill:#6BC200;}
	.st2{fill:#0090C5;}
	.st3{fill:#9F7AD1;}
</style>
<g>
	<path class="st0" d="M331,256.7l-9.4-98.1c-0.7-7.8-10.2-11.2-15.8-5.7l-24.4,24.4l-64-64c-3.6-3.6-9.5-3.6-13.1,0L177.5,140
		c-3.6,3.6-3.6,9.5,0,13.1l64,64l-24.4,24.4c-5.5,5.5-2.1,15,5.7,15.8l98.1,9.4C326.6,267.3,331.5,262.5,331,256.7z"/>
	<path class="st1" d="M290.7,137.8c5.8-5.8,13.5-9,21.6-9c2.2,0,4.4,0.3,6.4,0.7c0.1-0.7,0.2-1.3,0.2-2c0-11.4-9.3-20.7-20.7-20.7
		h-57.2l40.3,40.3L290.7,137.8z"/>
	<path class="st1" d="M162.4,125l18.1-18.1H20.7C9.3,106.9,0,116.1,0,127.5s9.3,20.7,20.7,20.7h132.9c0-0.5-0.2-1.1-0.2-1.6
		C153.4,138.4,156.6,130.7,162.4,125z"/>
	<path class="st2" d="M20.7,74.4h277.6c11.4,0,20.7-9.3,20.7-20.7s-9.3-20.7-20.7-20.7H20.7C9.3,33.1,0,42.3,0,53.7
		S9.3,74.4,20.7,74.4z"/>
	<path class="st3" d="M174.9,180.7H20.7C9.3,180.7,0,190,0,201.4C0,212.8,9.3,222,20.7,222h185.8l4.9-4.9L174.9,180.7z"/>
	<g>
		<path class="st2" d="M344.4,278.1c-5.8,6.4-14,10-22.6,10c-1,0-1.9,0-2.9-0.1l-15-1.4c-17.1,30.8-30.8,63.8-30.7,90.8
			c0,3,0.2,5.9,0.5,8.8L413.8,246c-11.9-17.8-23.4-32.9-31.3-43.1c-5.6-7.2-16.4-7.2-22.1,0c-3.3,4.3-7.3,9.4-11.7,15.2l3.5,36.6
			C353,263.2,350.2,271.8,344.4,278.1z"/>
	</g>
	<g>
		<path class="st2" d="M306.1,453.1c17.3,16,40.1,25.8,65.1,25.8c54.2,0,98.1-45.5,98.1-101.6c0-20.5-7.9-44.5-19.2-68.4
			L306.1,453.1z"/>
	</g>
	
		<rect x="187" y="323.5" transform="matrix(0.7071 -0.7071 0.7071 0.7071 -130.4119 361.5819)" class="st0" width="368.6" height="29.5"/>
</g>
</svg>
