<?xml version="1.0" encoding="utf-8"?>
<!-- Generator: Adobe Illustrator 21.1.0, SVG Export Plug-In . SVG Version: 6.00 Build 0)  -->
<svg version="1.1" id="Layer_1" xmlns="http://www.w3.org/2000/svg" xmlns:xlink="http://www.w3.org/1999/xlink" x="0px" y="0px"
	 viewBox="0 0 140 140" style="enable-background:new 0 0 140 140;" xml:space="preserve">
<style type="text/css">
	.st0{fill:#8AA4B1;}
	.st1{fill:#FFFFFF;}
</style>
<title>Twilight_ServiceSettings</title>
<path class="st0" d="M70,0C31.3,0,0,31.3,0,70s31.3,70,70,70s70-31.3,70-70S108.7,0,70,0z M70,131.1c-33.7,0-61.1-27.3-61.1-61.1
	C8.9,36.3,36.3,8.9,70,8.9c33.7,0,61.1,27.3,61.1,61.1c0,33.7-27.2,61-60.9,61.1C70.1,131.1,70,131.1,70,131.1z"/>
<path class="st0" d="M102.3,64.5c-0.8-0.2-1.8-0.4-2.8-0.6s-2.1-0.4-3.1-0.5s-1.7-0.2-2.1-0.3c-0.5-1.7-1.2-3.4-2.2-5
	c0.1-0.2,0.5-0.7,1.1-1.4l1.8-2.2l1.7-2.2c0.3-0.4,0.6-0.8,0.8-1.2c0-0.2-0.4-0.8-1.2-1.6s-1.7-1.7-2.7-2.6s-1.9-1.8-2.8-2.6
	c-0.4-0.5-1-0.9-1.5-1.2l-0.4,0.2c-1.1,0.9-2.2,1.7-3.4,2.5s-2.3,1.6-3.5,2.4c-1.5-0.8-3.1-1.4-4.8-1.9c-0.1-0.3-0.2-1-0.3-2
	s-0.2-2.1-0.4-3.1c-0.1-1-0.3-1.9-0.6-2.8c-0.3-0.8-0.6-1.3-0.9-1.3H65c-0.4,0-0.7,0.4-0.9,1.3c-0.3,0.9-0.5,1.9-0.6,2.8
	c-0.1,1-0.3,2.1-0.4,3.1s-0.2,1.7-0.2,2c-1.7,0.4-3.4,1.1-5,2c-0.4-0.4-0.9-0.8-1.4-1.1c-0.8-0.6-1.6-1.2-2.4-1.9s-1.6-1.2-2.3-1.6
	c-0.4-0.3-0.7-0.5-1.1-0.7c-0.6,0.3-1.2,0.6-1.6,1.1c-0.9,0.8-1.8,1.6-2.8,2.6s-1.8,1.8-2.6,2.7s-1.1,1.4-1.1,1.6l0.2,0.5
	c0.9,1,1.8,2.1,2.6,3.2s1.7,2.2,2.5,3.3c-1,1.5-1.7,3.1-2.1,4.8c-0.4,0-1.1,0.1-2.1,0.2s-2.1,0.2-3.2,0.4c-1,0.1-2,0.3-2.9,0.6
	c-0.8,0.3-1.3,0.6-1.3,0.8v9.7c0,0.3,0.4,0.6,1.3,0.8c0.9,0.2,1.9,0.4,2.8,0.6c1.1,0.1,2.1,0.3,3.1,0.4s1.7,0.2,2.1,0.3
	c0.6,1.8,1.3,3.5,2.2,5.1c-0.2,0.2-0.5,0.7-1,1.4s-1.1,1.4-1.7,2.2S44,87,43.5,87.7c-0.3,0.3-0.5,0.7-0.7,1.1c0,0.2,0.4,0.8,1.1,1.6
	s1.6,1.8,2.6,2.7s1.9,1.8,2.7,2.6c0.5,0.4,1,0.8,1.5,1.1l0.6-0.1c1.1-0.9,2.2-1.8,3.3-2.6s2.3-1.7,3.4-2.5c1.5,0.9,3.2,1.6,4.9,2
	c0,0.7,0.1,1.3,0.2,2c0.1,1,0.2,2,0.4,3c0.1,1,0.3,1.9,0.7,2.8c0.3,0.8,0.6,1.2,0.9,1.2h10c0.3,0,0.6-0.4,0.9-1.2
	c0.3-0.9,0.5-1.9,0.7-2.8c0.2-1.1,0.3-2.1,0.4-3.1s0.2-1.6,0.2-2c1.7-0.5,3.3-1.2,4.9-2c0.2,0.2,0.7,0.6,1.4,1.1l2.3,1.8
	c0.8,0.6,1.6,1.2,2.3,1.7c0.4,0.3,0.7,0.5,1.2,0.7c0.6-0.2,1.2-0.6,1.7-1.1c0.9-0.8,1.8-1.6,2.8-2.6s1.9-1.9,2.7-2.7
	s1.2-1.4,1.2-1.6l-0.1-0.5c-1-1-1.9-2.1-2.7-3.2c-0.8-1.1-1.6-2.2-2.5-3.3c0.8-1.5,1.5-3.1,2-4.7c0.7-0.1,1.3-0.2,2-0.2
	c1.1-0.1,2.1-0.2,3.2-0.4c1-0.2,1.9-0.4,2.8-0.6c0.8-0.2,1.3-0.5,1.3-0.9v-9.6C103.6,65,103.1,64.7,102.3,64.5z M81.4,74.7
	c-0.6,1.4-1.5,2.7-2.6,3.8c-1.1,1.1-2.5,2-3.9,2.6c-1.5,0.6-3.1,0.9-4.8,0.9c-1.7,0-3.3-0.3-4.8-0.9c-3-1.2-5.4-3.5-6.6-6.4
	c-0.7-1.5-1-3.1-1-4.7c-0.1-3.2,1.3-6.4,3.6-8.6c3.6-3.5,9-4.5,13.6-2.5c1.5,0.6,2.8,1.5,3.9,2.6c1.1,1.1,2,2.4,2.6,3.9
	C82.7,68.4,82.7,71.7,81.4,74.7L81.4,74.7z"/>
<path class="st1" d="M111.7,38.8l-10.1,10.1L91.1,38.4l10.1-10.1c-1.5-0.4-3-0.7-4.5-0.8c-8.9,0.1-16,7.2-16.1,16.1
	c0.1,1.5,0.3,3,0.8,4.5L48.1,81.4c-1.5-0.4-3-0.7-4.5-0.8c-8.9,0.1-16,7.2-16.1,16.1c0.1,1.5,0.3,3,0.8,4.5l10.1-10.1l10.5,10.5
	l-10.1,10.1c1.5,0.4,3,0.7,4.5,0.8c8.9-0.1,16-7.2,16.1-16.1c-0.1-1.5-0.3-3-0.8-4.5l33.3-33.3c1.5,0.4,3,0.7,4.5,0.8
	c8.9-0.1,16-7.2,16.1-16.1C112.1,41.8,112.1,40.3,111.7,38.8"/>
</svg>
