<?xml version="1.0" encoding="utf-8"?>
<!-- Generator: Adobe Illustrator 21.1.0, SVG Export Plug-In . SVG Version: 6.00 Build 0)  -->
<svg version="1.1" id="Layer_1" xmlns="http://www.w3.org/2000/svg" xmlns:xlink="http://www.w3.org/1999/xlink" x="0px" y="0px"
	 viewBox="0 0 140 140" style="enable-background:new 0 0 140 140;" xml:space="preserve">
<style type="text/css">
	.st0{fill:#8AA4B1;}
	.st1{fill:#FFFFFF;}
</style>
<title>Twilight_Settings</title>
<path class="st0" d="M70,0C31.3,0,0,31.3,0,70s31.3,70,70,70s70-31.3,70-70S108.7,0,70,0z M70,131.1c-33.7,0-61.1-27.3-61.1-61.1
	C8.9,36.3,36.3,8.9,70,8.9c33.7,0,61.1,27.3,61.1,61.1c0,33.7-27.2,61-60.9,61.1C70.1,131.1,70,131.1,70,131.1z"/>
<path class="st1" d="M115.1,62.1c-1.2-0.3-2.5-0.6-4-0.9s-2.9-0.5-4.3-0.7s-2.4-0.3-2.9-0.4c-0.7-2.5-1.7-4.9-3-7.2
	c0.2-0.3,0.7-1,1.5-2l2.5-3.2l2.3-3.1c0.4-0.5,0.8-1.1,1-1.8c0-0.3-0.6-1.1-1.7-2.3s-2.3-2.5-3.7-3.8s-2.6-2.5-3.8-3.6
	c-0.6-0.7-1.3-1.2-2.1-1.7l-0.6,0.3c-1.5,1.2-3.1,2.4-4.7,3.6s-3.2,2.4-4.9,3.5c-2.1-1.2-4.3-2.1-6.7-2.7c-0.1-0.4-0.2-1.4-0.4-2.9
	s-0.3-3-0.5-4.5c-0.2-1.4-0.5-2.7-0.9-4C77.8,23.6,77.4,23,77,23H63.1c-0.5,0-1,0.6-1.3,1.8c-0.4,1.3-0.6,2.7-0.8,4
	c-0.2,1.5-0.4,3-0.5,4.5s-0.2,2.5-0.2,2.9c-2.5,0.6-4.8,1.6-7,2.9c-0.6-0.6-1.2-1.1-1.9-1.6c-1.1-0.9-2.2-1.8-3.3-2.7
	s-2.3-1.7-3.2-2.4c-0.5-0.4-1-0.7-1.6-1c-0.9,0.4-1.6,0.9-2.3,1.6c-1.2,1.1-2.5,2.3-3.9,3.7s-2.6,2.7-3.7,3.9s-1.6,2-1.6,2.3
	l0.3,0.8c1.2,1.5,2.5,3.1,3.6,4.6s2.3,3.2,3.5,4.8c-1.3,2.1-2.3,4.4-2.9,6.8c-1,0-1.9,0.1-2.9,0.3c-1.4,0.1-2.9,0.3-4.4,0.5
	c-1.4,0.2-2.7,0.5-4,0.9c-1.2,0.4-1.7,0.8-1.7,1.2v14c0,0.4,0.6,0.8,1.7,1.1c1.3,0.4,2.7,0.6,4,0.8c1.5,0.2,2.9,0.4,4.3,0.5
	c1.4,0.1,2.4,0.3,2.9,0.4c0.8,2.5,1.8,5,3,7.3c-0.2,0.3-0.7,1-1.5,2s-1.5,2.1-2.4,3.2s-1.6,2.2-2.3,3.1c-0.4,0.5-0.7,1-1,1.6
	c0.4,0.9,0.9,1.7,1.6,2.3c1.1,1.3,2.3,2.6,3.6,3.9s2.6,2.6,3.8,3.7c0.6,0.6,1.4,1.2,2.2,1.6l0.8-0.2c1.5-1.3,3.1-2.5,4.6-3.8
	s3.2-2.4,4.8-3.6c2.1,1.3,4.5,2.2,6.9,2.9c0,1,0.1,2,0.2,2.9c0.1,1.4,0.3,2.8,0.5,4.4c0.2,1.4,0.5,2.7,0.9,4.1
	c0.4,1.2,0.8,1.8,1.2,1.8h13.8c0.4,0,0.8-0.6,1.2-1.8c0.4-1.3,0.8-2.7,1-4.1c0.3-1.5,0.4-3,0.6-4.4s0.2-2.3,0.2-2.9
	c2.4-0.8,4.6-1.8,6.8-2.9c0.3,0.3,1,0.8,2,1.6s2.1,1.6,3.3,2.5s2.2,1.7,3.2,2.4c0.5,0.4,1,0.8,1.6,1.1c0.3,0,1.1-0.5,2.3-1.6
	s2.5-2.3,3.9-3.7s2.6-2.7,3.7-3.9c0.7-0.7,1.2-1.5,1.6-2.4l-0.2-0.8c-1.3-1.4-2.6-3-3.8-4.6c-1.1-1.6-2.3-3.1-3.5-4.7
	c1.1-2.2,2.1-4.5,2.9-6.9c0.9-0.2,1.9-0.3,2.8-0.3c1.5-0.1,3-0.3,4.4-0.5c1.3-0.2,2.7-0.5,4-0.9c1.2-0.3,1.8-0.8,1.8-1.3V63.2
	C116.8,62.8,116.2,62.4,115.1,62.1z M83,75.5c-0.7,1.7-1.7,3.2-3,4.5c-2.6,2.6-6.2,4.1-9.9,4.1c-1.9,0-3.7-0.4-5.5-1.1
	c-1.7-0.7-3.2-1.7-4.5-3c-1.3-1.3-2.3-2.8-3-4.5c-0.8-1.7-1.2-3.6-1.1-5.5c0-7.8,6.2-14.1,14-14.2c0,0,0.1,0,0.1,0
	c1.9,0,3.7,0.4,5.5,1.1c1.7,0.7,3.2,1.7,4.5,3c1.3,1.3,2.3,2.9,3,4.6C84.5,68.1,84.5,72,83,75.5L83,75.5z"/>
</svg>
