<?xml version="1.0" encoding="utf-8"?>
<!-- Generator: Adobe Illustrator 21.0.0, SVG Export Plug-In . SVG Version: 6.00 Build 0)  -->
<svg version="1.1" id="Layer_1" xmlns="http://www.w3.org/2000/svg" xmlns:xlink="http://www.w3.org/1999/xlink" x="0px" y="0px"
	 viewBox="0 0 480 320" style="enable-background:new 0 0 480 320;" xml:space="preserve">
<style type="text/css">
	.st0{opacity:0.1;fill:#8AA4B1;enable-background:new    ;}
	.st1{fill:#8AA4B1;fill-opacity:0.2;}
	.st2{fill:#FFFFFF;}
	.st3{fill:#81CB26;}
	.st4{fill:#26A1CE;}
</style>
<path class="st0" d="M475,0H5C2.2,0,0,2.2,0,5v310c0,2.8,2.2,5,5,5h470c2.8,0,5-2.2,5-5V5C480,2.2,477.8,0,475,0L475,0z"/>
<path class="st1" d="M480,32.7H0V5c0-2.8,2.2-5,5-5h470c2.8,0,5,2.2,5,5V32.7z"/>
<path class="st1" d="M475,319.7H5c-2.8,0-5-2.2-5-5v-55.6h480v55.6C480,317.4,477.8,319.7,475,319.7z"/>
<path class="st2" d="M475,2c1.7,0,3,1.3,3,3v310c0,1.7-1.3,3-3,3H5c-1.7,0-3-1.3-3-3V5c0-1.7,1.3-3,3-3H475 M475,0H5
	C2.2,0,0,2.2,0,5v310c0,2.8,2.2,5,5,5h470c2.8,0,5-2.2,5-5V5C480,2.2,477.8,0,475,0L475,0z"/>
<rect x="160.1" y="56.4" class="st2" width="160.1" height="9.3"/>
<rect x="160.1" y="81" class="st2" width="65.7" height="1.6"/>
<rect x="191.2" y="107.8" class="st2" width="81.3" height="3.1"/>
<circle class="st3" cx="166.3" cy="109.3" r="6.5"/>
<rect x="191.2" y="130.2" class="st2" width="81.3" height="3.1"/>
<rect x="287.5" y="107.8" class="st2" width="32.7" height="3.1"/>
<rect x="287.5" y="130.2" class="st2" width="32.7" height="3.1"/>
<circle class="st4" cx="166.3" cy="131.7" r="6.5"/>
</svg>
