<?xml version="1.0" encoding="utf-8"?>
<!-- Generator: Adobe Illustrator 21.1.0, SVG Export Plug-In . SVG Version: 6.00 Build 0)  -->
<svg version="1.1" id="Layer_1" xmlns="http://www.w3.org/2000/svg" xmlns:xlink="http://www.w3.org/1999/xlink" x="0px" y="0px"
	 viewBox="0 0 140 140" style="enable-background:new 0 0 140 140;" xml:space="preserve">
<style type="text/css">
	.st0{fill:#FFFFFF;}
	.st1{fill:#8AA4B1;}
</style>
<g>
	<path class="st0" d="M41.3,43.9c2.3-0.8,5.3-1.3,8.9-1.8l2-0.3c2.9-0.4,5.3-0.4,7.6,0.7l-8.6-8.6c0.6-2.5,1.2-4.9,1.2-7.4
		C52.4,12.3,40.7,0,25.9,0c-2.8,0.2-4.9,0.6-7.4,1.2l16.7,16.7L17.9,35.2L1.2,18.5C0.4,20.9,0,23.4,0,25.9
		c0,14.2,11.7,26.5,26.5,26.5c2.5,0,4.9-0.6,7.4-1.2l1.1,1.1c0.3-1.3,0.7-2.6,1.1-3.8C37.5,44.7,41.3,43.9,41.3,43.9z"/>
	<path class="st1" d="M82.6,97.7c-0.4,0.4-0.8,0.8-1.2,1.3c-3.5,3.8-5.5,5.7-9.2,5.8c-5.8,0.2-8.7,0.6-11.6,3.1
		c-2.1,1.8-7.4,7.5-8,8.2c-1.1,1.2-1.1,3.1,0.2,4.2c0.6,0.5,1.3,0.8,2,0.8c0.8,0,1.6-0.3,2.2-1c1.6-1.7,6-6.4,7.6-7.7
		c1.2-1,2.3-1.5,7.8-1.7c6.4-0.2,9.8-3.9,13.4-7.8c0.4-0.4,0.7-0.8,1.1-1.2c1.1-1.2,1.1-3.1-0.1-4.2S83.8,96.5,82.6,97.7z"/>
	<path class="st0" d="M113.5,87.6c-2.5,0-4.9,0.6-7.4,1.2l-3.9-3.9l-8.6,8.6c-1.8,1.8-4.7,1.8-6.5,0l-5.8-5.8
		c-0.9-0.9-1.4-2-1.4-3.3c0-0.6,0.1-1.3,0.4-1.8c-0.3-0.2-0.6-0.3-0.9-0.6l-7.8-7.7c-2.7-0.4-5.2-1.6-7.4-3.7
		c0.5,3.3,0.2,6.7-0.7,10l22.5,22.5l2.9,2.9c-0.6,2.5-1.2,4.9-1.2,7.4c0,14.2,11.7,26.5,26.5,26.5c2.5,0,4.9-0.6,7.4-1.2l-16.7-16.7
		l17.3-17.3l16.7,16.7c0.6-2.5,1.2-4.9,1.2-7.4C140,99.9,128.3,87.6,113.5,87.6z"/>
	<g>
		<path class="st1" d="M107.2,71l-3.4-3.4c-0.7-0.7-1.6-1.3-2.6-1.6c0.6-2.3,0-4.9-1.8-6.7l-2.8-2.8c-0.8-0.8-1.9-1.4-3-1.8
			c0.7-2.4,0.1-5-1.8-6.9l-3.2-3.2c-1.3-1.3-3.1-2.1-4.9-2.1c-1.5,0-2.9,0.5-4.1,1.3c-0.3-0.7-0.8-1.3-1.3-1.8l-3-3
			C74,37.8,72.3,37,70.4,37c-1.9,0-3.6,0.7-4.9,2.1L62,42.5v0c-2.8-1.9-5.2-1.9-8-1.7c-2.8,0.3-5.8,0.7-6,0.7c-6,1-9.1,1.7-11.8,4.8
			c-3,3.4-4,14.7-3.8,17.6c0.4,4.9-0.2,11-1.9,12.7c-2.5,2.5-6.4,6.4-7.9,8c-1.2,1.2-1.2,3.1,0,4.2c1.2,1.2,3.1,1.2,4.2,0
			c1.5-1.6,5.5-5.5,7.9-8c4.3-4.3,3.9-14.4,3.6-17.4c-0.3-3.4,1.2-11.8,2.3-13.2c1.2-1.4,2.4-1.9,8.2-2.8c0,0,2.9-0.4,5.6-0.7
			c2.4-0.2,3.2-0.2,4.9,1.2c1.1,0.9,4.9,4.8,8.9,8.8c0.5,0.5,1.1,1.1,1.6,1.7l0,0c2.9,2.9,5.6,5.7,7.3,7.4c0.2,0.2,0.3,0.4,0.5,0.5
			c0,0,0.1,0.1,0.1,0.1c0.1,0.1,0.2,0.2,0.3,0.3c0,0,0.1,0.1,0.1,0.1c0.1,0.1,0.1,0.2,0.2,0.2c0,0,0.1,0.1,0.1,0.1
			c0.1,0.1,0.1,0.1,0.2,0.2c0.1,0.1,0.2,0.2,0.3,0.3c-0.1,0-0.1,0.1-0.2,0.2c-0.1,0.1-0.3,0.2-0.4,0.3c-1.3,0.8-3.1,1.3-4.7,1.3l0,0
			c-1.4,0-2.8-0.3-3.7-0.9c-2.5-1.8-8.2-7.3-10.1-9.3c-1.2-1.2-3-1.2-4.2,0c-1.2,1.2-1.2,3-0.1,4.2c0.1,0.1,5.2,5.5,3.9,12.3
			C58,83.1,55,86.6,53.7,88.1l-0.3,0.3c-1.1,1.3-0.9,3.2,0.4,4.2c0.6,0.5,1.2,0.7,1.9,0.7c0.9,0,1.7-0.4,2.3-1.1l0.2-0.3
			c1.6-1.9,5.3-6.2,7-15c0.3-1.4,0.4-2.8,0.3-4.1c0.3,0.2,0.5,0.4,0.8,0.6c1.5,1.1,3.3,1.7,5.3,1.9l0,0c0.2,1.4,0.9,2.8,2,4l2.8,2.8
			c0.7,0.7,1.6,1.3,2.6,1.6c-0.6,2.3,0,4.9,1.8,6.7l3.4,3.4c1.3,1.3,3.1,2.1,4.9,2.1c1.9,0,3.6-0.7,4.9-2.1l13.1-13.1
			C110,78.2,110,73.7,107.2,71z M83.7,48.5c0.3,0,0.5,0.1,0.7,0.3l3.2,3.2c0.4,0.4,0.4,1,0,1.4l-7.2,7.2c-1.3-1.3-2.8-2.9-4.5-4.6
			c0,0,0,0,0,0l7.2-7.2C83.2,48.6,83.4,48.5,83.7,48.5z M69.7,43.3c0.2-0.2,0.5-0.3,0.7-0.3c0.3,0,0.5,0.1,0.7,0.3l3,3
			c0.4,0.4,0.4,1,0,1.4l-3.2,3.2c-1.6-1.6-3.1-3.1-4.4-4.3c0,0,0,0,0,0L69.7,43.3z M77.9,75.1c0,0-0.1-0.1-0.1-0.2c0,0,0,0,0,0
			c0.4-0.1,0.8-0.2,1.2-0.4c0.1,0,0.2-0.1,0.2-0.1c0.3-0.1,0.6-0.2,0.9-0.4c0.1,0,0.2-0.1,0.3-0.1c0.3-0.1,0.5-0.3,0.8-0.4
			c0.1-0.1,0.2-0.1,0.3-0.2c0.3-0.2,0.7-0.4,1-0.7c1.8-1.4,2.7-2.9,2.9-4.6c0-0.3,0-0.6,0-0.8c0,0,0-0.1,0-0.1
			c0-0.2-0.1-0.5-0.2-0.7l5.8-5.8c0.2-0.2,0.5-0.3,0.7-0.3c0.3,0,0.5,0.1,0.7,0.3l2.8,2.8c0.4,0.4,0.4,1,0,1.4L82.1,78
			c-0.2,0.2-0.5,0.3-0.7,0.3c-0.3,0-0.5-0.1-0.7-0.3L77.9,75.1z M103,76.6L89.9,89.7c-0.2,0.2-0.5,0.3-0.7,0.3
			c-0.3,0-0.5-0.1-0.7-0.3l-3.4-3.4c-0.4-0.4-0.4-1,0-1.4l13.1-13.1c0.2-0.2,0.5-0.3,0.7-0.3c0.3,0,0.5,0.1,0.7,0.3l3.4,3.4
			C103.4,75.6,103.4,76.3,103,76.6z"/>
	</g>
</g>
</svg>
