<?xml version="1.0" encoding="utf-8"?>
<!-- Generator: Adobe Illustrator 21.0.0, SVG Export Plug-In . SVG Version: 6.00 Build 0)  -->
<svg version="1.1" id="Layer_3" xmlns="http://www.w3.org/2000/svg" xmlns:xlink="http://www.w3.org/1999/xlink" x="0px" y="0px"
	 viewBox="0 0 112 112" style="enable-background:new 0 0 112 112;" xml:space="preserve">
<style type="text/css">
	.st0{fill:#75787A;}
	.st1{fill:#6BC200;}
	.st2{fill:#0090C5;}
	.st3{fill:#9F7AD1;}
	.st4{fill:#FFFFFF;}
</style>
<path class="st0" d="M56,112C25.1,112,0,86.9,0,56S25.1,0,56,0c30.9,0,56,25.1,56,56S86.9,112,56,112z M56,2C26.2,2,2,26.2,2,56
	s24.2,54,54,54c29.8,0,54-24.2,54-54S85.8,2,56,2z"/>
<path class="st1" d="M66,58.3H48.2c-0.9,0-1.6-0.7-1.6-1.6v-0.4c0-0.9,0.7-1.6,1.6-1.6H66c0.9,0,1.6,0.7,1.6,1.6v0.4
	C67.6,57.6,66.9,58.3,66,58.3z"/>
<path class="st2" d="M66,46.9H48.2c-0.9,0-1.6-0.7-1.6-1.6V45c0-0.9,0.7-1.6,1.6-1.6H66c0.9,0,1.6,0.7,1.6,1.6v0.4
	C67.6,46.2,66.9,46.9,66,46.9z"/>
<path class="st3" d="M66,69.6H48.2c-0.9,0-1.6-0.7-1.6-1.6v-0.4c0-0.9,0.7-1.6,1.6-1.6H66c0.9,0,1.6,0.7,1.6,1.6v0.4
	C67.6,68.9,66.9,69.6,66,69.6z"/>
<path class="st4" d="M74.6,83.8h-35c-1.8,0-3.4-1.5-3.4-3.4V32.6c0-1.8,1.5-3.4,3.4-3.4h35c1.8,0,3.4,1.5,3.4,3.4v47.8
	C78,82.3,76.5,83.8,74.6,83.8z M39.6,32.2c-0.2,0-0.4,0.2-0.4,0.4v47.8c0,0.2,0.2,0.4,0.4,0.4h35c0.2,0,0.4-0.2,0.4-0.4V32.6
	c0-0.2-0.2-0.4-0.4-0.4H39.6z"/>
<path class="st4" d="M33.2,41.5h9.2c1.1,0,2-0.9,2-2s-0.9-2-2-2h-9.2c-1.1,0-2,0.9-2,2S32.1,41.5,33.2,41.5z"/>
<path class="st4" d="M33.4,64.1h8.6c1,0,1.9-0.8,1.9-1.9c0-1-0.8-1.9-1.9-1.9h-8.6c-1,0-1.9,0.8-1.9,1.9
	C31.6,63.2,32.4,64.1,33.4,64.1z"/>
<path class="st4" d="M33.2,52.8h9.2c1.1,0,2-0.9,2-2c0-1.1-0.9-2-2-2h-9.2c-1.1,0-2,0.9-2,2C31.2,51.9,32.1,52.8,33.2,52.8z"/>
<path class="st4" d="M43.8,73.6c0-1-0.8-1.8-1.8-1.8h-8.4c-1,0-1.8,0.8-1.8,1.8c0,1,0.8,1.8,1.8,1.8H42C43,75.4,43.8,74.6,43.8,73.6
	z"/>
</svg>
