<?xml version="1.0" encoding="utf-8"?>
<!-- Generator: Adobe Illustrator 21.0.0, SVG Export Plug-In . SVG Version: 6.00 Build 0)  -->
<svg version="1.1" id="Layer_1" xmlns="http://www.w3.org/2000/svg" xmlns:xlink="http://www.w3.org/1999/xlink" x="0px" y="0px"
	 viewBox="0 0 174 472" style="enable-background:new 0 0 174 472;" xml:space="preserve">
<style type="text/css">
	.st0{fill:#9F7AD1;}
</style>
<title>Untitled-1</title>
<g>
	<path class="st0" d="M86.7,3c1.5,0,3.1,0.3,4.7,0.9l72.3,31.1c4.5,2,7.2,6.2,7.2,11v411c-0.3,6.7-5.5,12-11.9,12H15
		c-6.7-0.3-12-5.5-12-11.9V45.7c0-4.9,2.9-9.3,7.1-10.9l0,0l0,0L82.3,3.9C83.8,3.3,85.2,3,86.7,3 M86.7,0c-1.9,0-3.8,0.4-5.6,1.2
		L9,32c-5.6,2.2-9,7.8-9,13.7v411.3c0,8.1,6.5,14.6,14.9,14.9h144.2c8.1,0,14.6-6.5,14.9-14.9V46c0-5.9-3.4-11.2-9-13.7L92.6,1.2
		C90.6,0.4,88.6,0,86.7,0L86.7,0z"/>
</g>
</svg>
