<?xml version="1.0" encoding="iso-8859-1"?>
<!-- Generator: Adobe Illustrator 21.0.0, SVG Export Plug-In . SVG Version: 6.00 Build 0)  -->
<svg version="1.1" id="Layer_1" xmlns="http://www.w3.org/2000/svg" xmlns:xlink="http://www.w3.org/1999/xlink" x="0px" y="0px"
	 viewBox="0 0 745.198 624.087" style="enable-background:new 0 0 745.198 624.087;" xml:space="preserve">
<title>Untitled-3</title>
<g>
	<path style="fill:#90969F;" d="M11.283,3l0.173,0.002l0.031,0.001h0.031h668.227c34.437,0,62.453,28.017,62.453,62.454v493.178
		c0,34.437-28.016,62.454-62.453,62.454H375.17c-0.805-0.001-1.562-0.316-2.131-0.886c-0.569-0.57-0.882-1.328-0.88-2.134
		c0-0.087,0.004-0.175,0.011-0.258l0.872-9.743c0.146-1.557,1.436-2.733,2.997-2.734h303.705c25.715,0,46.636-20.921,46.636-46.636
		V65.456c0-25.715-20.921-46.636-46.636-46.636H10.898c-2.112-0.003-4.097-0.828-5.589-2.324C3.817,15,2.997,13.013,3,10.899
		c0-0.122,0.003-0.244,0.009-0.366C3.413,6.235,6.962,3,11.283,3 M11.283,0C5.435,0,0.533,4.469,0.016,10.319
		C0.006,10.511,0,10.704,0,10.896c-0.008,6.025,4.869,10.916,10.894,10.924h668.851c24.099,0,43.636,19.536,43.636,43.636v493.24
		c0,24.099-19.536,43.636-43.636,43.636H376.039c-3.103,0.003-5.695,2.365-5.984,5.454l-0.873,9.756
		c-0.015,0.174-0.023,0.348-0.023,0.522c-0.004,3.322,2.685,6.019,6.008,6.023h304.578c36.149,0,65.453-29.305,65.453-65.454V65.456
		c0-36.149-29.305-65.454-65.453-65.454H11.517C11.439,0.001,11.361,0,11.283,0L11.283,0z"/>
</g>
</svg>
