<?xml version="1.0" encoding="utf-8"?>
<!-- Generator: Adobe Illustrator 19.2.1, SVG Export Plug-In . SVG Version: 6.00 Build 0)  -->
<svg version="1.1" id="Layer_1" xmlns="http://www.w3.org/2000/svg" xmlns:xlink="http://www.w3.org/1999/xlink" x="0px" y="0px"
	 viewBox="0 0 742 259" style="enable-background:new 0 0 742 259;" xml:space="preserve">
<style type="text/css">
	.st0{fill:#F4B386;}
	.st1{fill:#E86D1F;}
	.st2{fill:#FFFFFF;}
	.st3{fill:none;}
</style>
<g>
	<path class="st0" d="M0,0c248.3,178.7,491.1,234.5,689.5,254.6c16.2,1.6,33.8,3.1,52.5,4.4V0.2"/>
	<path class="st1" d="M0,0.2L0,0.2c211,151.9,418.9,199.3,587.5,216.4c42.7,4.3,97.3,7.3,154.5,9.4V0.2H0z"/>
</g>
<g>
	<path class="st2" d="M645.4,62.4c0.7-0.9,1.2-2,1.2-3.2c0-2.7-2.2-4.9-4.9-5H630v17h11.8c2.8,0,5.1-2.3,5.1-5.2
		C647,64.6,646.4,63.3,645.4,62.4z M634,57.2h7.5c0.8,0,1.5,0.7,1.5,1.5c0,0.8-0.7,1.5-1.5,1.5H634V57.2z M640.7,67.2H634v-3h6.7
		c0.8,0,1.5,0.7,1.5,1.5C642.2,66.6,641.6,67.2,640.7,67.2z"/>
	<path class="st3" d="M576,104.4v61.8h61.8C603.7,166.2,576,138.6,576,104.4z"/>
	<path class="st3" d="M638.2,166.2H700v-61.8C700,138.6,672.3,166.2,638.2,166.2z"/>
	<path class="st3" d="M576,42.2V104c0-34.1,27.8-61.8,62-61.8c34.2,0,62,27.7,62,61.8V42.2H576z"/>
	<path class="st2" d="M637.9,42.1c-34.1,0-61.8,27.7-61.8,61.8c0,34.1,27.7,61.8,61.8,61.8c34.1,0,61.8-27.7,61.8-61.8
		C699.8,69.8,672.1,42.1,637.9,42.1z M637.9,160c-31,0-56.1-25.1-56.1-56.1c0-31,25.1-56.1,56.1-56.1c31,0,56.1,25.1,56.1,56.1
		C694,134.9,668.9,160,637.9,160z"/>
	<path class="st2" d="M633.1,89.2h9.6l1.4,2h4.3l-8.5-17H636l-8.5,17h4.3L633.1,89.2z M637.9,79l3,6.3h-6.1L637.9,79z"/>
	<polygon class="st2" points="636,112.2 640,112.2 640,106.3 648.5,95.2 643.7,95.2 638,103 632.3,95.2 627.5,95.2 636,106.3 	"/>
	<polygon class="st2" points="651,112.2 667,112.2 667,109.2 655,109.2 655,106.2 666,106.2 666,102.2 655,102.2 655,99.2 667,99.2 
		667,95.2 651,95.2 	"/>
	<path class="st2" d="M673,114.2h4v-7h3.3l5.3,7h5.2l-5.3-7.1c2.3-0.7,4-2.8,4-5.4c0-3.1-2.5-5.6-5.5-5.6H673V114.2z M677,100.2h5.4
		c0.8,0,1.5,0.7,1.5,1.5c0,0.8-0.7,1.5-1.5,1.5H677V100.2z"/>
	<path class="st2" d="M616.4,95.2l-8.5,17h4.3l1.4-2h9.7l1.4,2h4.3l-8.5-17H616.4z M615.4,106.2l3-6.3l3,6.3H615.4z"/>
	<path class="st2" d="M604.6,100.2c0-2.7-2.2-5-4.9-5H588v17h11.8c2.8,0,5.1-2.3,5.1-5.2c0-1.4-0.6-2.8-1.6-3.7
		C604.1,102.5,604.6,101.4,604.6,100.2z M592,99.2h7.5c0.8,0,1.5,0.7,1.5,1.5c0,0.8-0.7,1.5-1.5,1.5H592V99.2z M598.7,109.2H592v-3
		h6.7c0.8,0,1.5,0.7,1.5,1.5C600.2,108.6,599.6,109.2,598.7,109.2z"/>
	<polygon class="st2" points="646,120.2 646,116.2 630,116.2 630,134.2 646,134.2 646,130.2 634,130.2 634,127.2 645,127.2 
		645,123.2 634,123.2 634,120.2 	"/>
	<path class="st2" d="M646.6,143.5c0-2.9-2.4-5.3-5.2-5.3H630v17v0h4v-7h4.6l4.8,7l5,0l-5.1-6.9
		C645.2,147.6,646.6,145.7,646.6,143.5z M640.4,144.2H634v-3h6.4c0.8,0,1.5,0.7,1.5,1.5C641.9,143.6,641.2,144.2,640.4,144.2z"/>
</g>
</svg>
