<?xml version="1.0" encoding="utf-8"?>
<!-- Generator: Adobe Illustrator 20.0.0, SVG Export Plug-In . SVG Version: 6.00 Build 0)  -->
<!DOCTYPE svg PUBLIC "-//W3C//DTD SVG 1.1//EN" "http://www.w3.org/Graphics/SVG/1.1/DTD/svg11.dtd">
<svg version="1.1" id="Layer_1" xmlns="http://www.w3.org/2000/svg" xmlns:xlink="http://www.w3.org/1999/xlink" x="0px" y="0px"
	 viewBox="0 0 154.2 102.6" style="enable-background:new 0 0 154.2 102.6;" xml:space="preserve">
<style type="text/css">
	.st0{fill:#8AA4B1;fill-opacity:0.25;}
	.st1{fill:#2F3744;}
	.st2{fill:#FFDF4F;}
</style>
<path class="st0" d="M153.9,10.5H0.2V1.3c0-0.6,0.5-1,1-1h151.6c0.6,0,1.1,0.5,1.1,1.1V10.5z"/>
<rect x="0.2" y="91.8" class="st0" width="153.7" height="10.2"/>
<rect x="124.9" y="18.3" class="st0" width="29" height="7.8"/>
<rect x="7.4" y="18.3" class="st0" width="29" height="7.8"/>
<rect x="7.4" y="33.7" class="st0" width="139.1" height="21.3"/>
<rect x="42.2" y="18.3" class="st0" width="76.6" height="7.8"/>
<path class="st1" d="M152.8,102.6H1.3c-0.7,0-1.3-0.6-1.3-1.3V1.3C0,0.6,0.6,0,1.3,0h151.5c0.7,0,1.3,0.6,1.3,1.3v100
	C154.2,102,153.6,102.6,152.8,102.6z M1.3,0.5c-0.4,0-0.8,0.4-0.8,0.8v100c0,0.4,0.4,0.8,0.8,0.8h151.5c0.4,0,0.8-0.4,0.8-0.8V1.3
	c0-0.4-0.4-0.8-0.8-0.8H1.3z"/>
<rect x="32.2" y="69" class="st1" width="54.6" height="0.5"/>
<rect x="32.2" y="61" class="st1" width="64.6" height="0.5"/>
<rect x="32.2" y="85" class="st1" width="46.6" height="0.5"/>
<rect x="32.2" y="77" class="st1" width="59.6" height="0.5"/>
<rect x="32.2" y="39" class="st1" width="64.6" height="0.5"/>
<rect x="10.4" y="69" class="st1" width="10.9" height="0.5"/>
<rect x="10.4" y="61" class="st1" width="10.9" height="0.5"/>
<rect x="10.4" y="85" class="st1" width="10.9" height="0.5"/>
<rect x="10.4" y="77" class="st1" width="10.9" height="0.5"/>
<rect x="10.4" y="39" class="st1" width="10.9" height="0.5"/>
<rect x="105.3" y="69" class="st1" width="10.9" height="0.5"/>
<rect x="105.3" y="61" class="st1" width="10.9" height="0.5"/>
<rect x="105.3" y="85" class="st1" width="10.9" height="0.5"/>
<rect x="105.3" y="77" class="st1" width="10.9" height="0.5"/>
<rect x="105.3" y="39" class="st1" width="10.9" height="0.5"/>
<rect x="124.9" y="69" class="st1" width="16.3" height="0.5"/>
<rect x="124.9" y="61" class="st1" width="13.3" height="0.5"/>
<rect x="124.9" y="85" class="st1" width="10.3" height="0.5"/>
<rect x="124.9" y="77" class="st1" width="13.3" height="0.5"/>
<rect x="124.9" y="39" class="st1" width="16.3" height="0.5"/>
<rect x="7.4" y="33.3" class="st2" width="139.1" height="0.8"/>
</svg>
