<?xml version="1.0" encoding="utf-8"?>
<!-- Generator: Adobe Illustrator 24.2.0, SVG Export Plug-In . SVG Version: 6.00 Build 0)  -->
<svg version="1.1" id="Layer_1" xmlns="http://www.w3.org/2000/svg" xmlns:xlink="http://www.w3.org/1999/xlink" x="0px" y="0px"
	 viewBox="0 0 40 40" style="enable-background:new 0 0 40 40;" xml:space="preserve">
<style type="text/css">
	.st0{fill:#1E272A;}
</style>
<path class="st0" d="M20,0C9,0,0,9,0,20s9,20,20,20s20-9,20-20S31,0,20,0z M1.1,20.6h8.6c0,3.1,0.4,6,1.1,8.7H3.4
	C2.1,26.6,1.2,23.7,1.1,20.6z M20.6,9.8V1.2c3,0.3,5.6,3.7,7.1,8.6H20.6z M28,10.9c0.7,2.6,1.1,5.4,1.1,8.7h-5.2h-3.3v-8.7H28z
	 M19.4,9.8h-7.1c1.6-4.9,4.1-8.2,7.1-8.6V9.8z M19.4,10.9v8.7h-3.3h-5.2c0-3.1,0.4-6,1.1-8.7H19.4z M9.8,19.4H1.1
	c0.1-3.1,0.9-6,2.3-8.7h7.3C10.2,13.4,9.8,16.3,9.8,19.4z M10.9,20.6h5.2h3.3v8.7H12C11.3,26.6,10.9,23.7,10.9,20.6z M19.4,30.3v8.6
	c-3-0.3-5.6-3.7-7.1-8.6H19.4z M20.6,30.3h7.1c-1.6,4.9-4.1,8.2-7.1,8.6V30.3z M20.6,29.2v-8.7h3.3h5.2c0,3.1-0.4,6-1.1,8.7H20.6z
	 M30.2,20.6h8.7c-0.1,3.1-0.9,6-2.3,8.7h-7.3C29.8,26.6,30.2,23.7,30.2,20.6z M30.2,19.4c0-3.1-0.4-6-1.1-8.7h7.3
	c1.4,2.6,2.2,5.4,2.3,8.7H30.2z M35.8,9.8h-6.9c-1.1-3.7-2.8-6.6-4.8-8.1C29,2.7,33.1,5.7,35.8,9.8z M16,1.6
	c-2.1,1.7-3.8,4.6-4.9,8.2H4.2C6.9,5.7,11,2.7,16,1.6z M4.2,30.3h6.9c1.1,3.7,2.8,6.6,4.8,8.1C11,37.3,6.9,34.3,4.2,30.3z M24,38.4
	c2-1.7,3.7-4.6,4.8-8.1h7C33.1,34.3,29,37.3,24,38.4z"/>
</svg>
