<?xml version="1.0" encoding="utf-8"?>
<!-- Generator: Adobe Illustrator 21.0.0, SVG Export Plug-In . SVG Version: 6.00 Build 0)  -->
<svg version="1.1" id="Layer_1" xmlns="http://www.w3.org/2000/svg" xmlns:xlink="http://www.w3.org/1999/xlink" x="0px" y="0px"
	 viewBox="0 0 391 438" style="enable-background:new 0 0 391 438;" xml:space="preserve">
<style type="text/css">
	.st0{fill:#2F3744;}
	.st1{fill:#6BC200;}
	.st2{fill:#0090C5;}
	.st3{fill:#9F7AD1;}
	.st4{fill:#8AA4B1;fill-opacity:0.25;}
	.st5{fill:#F8F8F8;}
</style>
<g id="Layer_2">
</g>
<g>
	
		<rect x="236.9" y="40" transform="matrix(3.854838e-03 -1 1 3.854838e-03 171.0435 307.6839)" class="st0" width="6.2" height="56"/>
	<path class="st1" d="M319.3,105.2L319.3,105.2l-104.3-0.3c-1.9,0-3.1-1.6-3.1-3.1c0-1.9,1.2-3.1,3.1-3.1l0,0L319.3,99
		c1.9,0,3.1,1.6,3.1,3.1C322.4,103.9,321.2,105.2,319.3,105.2z"/>
	<path class="st2" d="M319.3,127.9L319.3,127.9l-104.3-0.3c-1.9,0-3.1-1.6-3.1-3.1c0-1.9,1.2-3.1,3.1-3.1l0,0l104.3,0.3
		c1.9,0,3.1,1.6,3.1,3.1C322.4,126.6,321.2,127.9,319.3,127.9z"/>
	<path class="st3" d="M319.3,150.6L319.3,150.6l-104.3-0.3c-1.9,0-3.1-1.6-3.1-3.1c0-1.5,1.2-3.1,3.1-3.1l104.3,0.3
		c1.9,0,3.1,1.6,3.1,3.1C322.4,149.3,320.8,150.6,319.3,150.6z"/>
	<polygon class="st4" points="192.7,171.5 177.7,149.3 67.6,149.3 67.6,171.5 67.6,187.9 67.6,196.4 67.6,368.3 390,368.3 
		390,171.5 	"/>
	<path class="st5" d="M197,314.2h-12.8c-4.4,0-8.1-2.8-9.4-6.9l-2.5-7.2c-1.2-3.4-0.3-7.5,2.5-10.3l8.4-8.4c3.7-3.7,3.7-10.3,0-14.1
		L170.8,255c-3.7-3.7-10.3-3.7-14.1,0l-8.4,8.4c-2.8,2.8-6.6,3.7-10.3,2.5l-7.2-2.5c-4.1-1.2-6.9-5.3-6.9-9.4v-12.8
		c0-5.6-4.4-10-10-10h-10h-10c-5.6,0-10,4.4-10,10V254c0,4.4-2.8,8.1-6.9,9.4l-7.2,2.5c-3.4,1.2-7.5,0.3-10.3-2.5l-8.4-8.4
		c-3.7-3.7-10.3-3.7-14.1,0L25,267.5c-3.7,3.7-3.7,10.3,0,14.1l8.4,8.4c2.8,2.8,3.7,6.6,2.5,10.3l-2.5,7.2c-1.2,4.1-5.3,6.9-9.4,6.9
		H11c-5.6,0-10,4.4-10,10v19.9c0,5.6,4.4,10,10,10h12.8c4.4,0,8.1,2.8,9.4,6.9l2.5,7.2c1.2,3.4,0.3,7.5-2.5,10.3l-8.4,8.4
		c-3.7,3.7-3.7,10.3,0,14.1l12.5,12.5c3.7,3.7,10.3,3.7,14.1,0l8.4-8.4c2.8-2.8,6.6-3.7,10.3-2.5l7.2,2.5c4.1,1.2,6.9,5.3,6.9,9.4
		V427c0,5.6,4.4,10,10,10h10h10c5.6,0,10-4.4,10-10v-12.5c0-4.4,2.8-8.1,6.9-9.4l7.2-2.5c3.4-1.2,7.5-0.3,10.3,2.5l8.4,8.4
		c3.7,3.7,10.3,3.7,14.1,0l12.5-12.5c3.7-3.7,3.7-10.3,0-14.1l-8.4-8.4c-2.8-2.8-3.7-6.6-2.5-10.3l2.5-7.2c1.2-4.1,5.3-6.9,9.4-6.9
		h12.8c5.6,0,10-4.4,10-10v-20.2C207,318.8,202.3,314.2,197,314.2z M136.3,341.9c-2.8,12.2-12.5,22.1-24.6,24.6
		c-24.3,5.3-45.1-15.5-39.9-39.9c2.8-12.2,12.5-22.1,24.6-24.6C120.8,296.5,141.6,317.6,136.3,341.9z"/>
	<g>
		<path class="st5" d="M276.1,348.4h-6.2c-2.2,0-4.1-1.9-4.1-4.1v-16.4c0-2.2,1.9-4.1,4.1-4.1h6.2c2.2,0,4.1,1.9,4.1,4.1v16.4
			C280.1,346.5,278.3,348.4,276.1,348.4z"/>
		<path class="st5" d="M304.7,348.4h-6.2c-2.2,0-4.1-1.9-4.1-4.1v-60.4c0-2.2,1.9-4.1,4.1-4.1h6.2c2.2,0,4.1,1.9,4.1,4.1v60.7
			C308.5,346.5,306.9,348.4,304.7,348.4z"/>
		<path class="st5" d="M333,348.4h-6.2c-2.2,0-4.1-1.9-4.1-4.1v-37.9c0-2.2,1.9-4.1,4.1-4.1h6.2c2.2,0,4.1,1.9,4.1,4.1v37.9
			C337.1,346.5,335.2,348.4,333,348.4z"/>
		<path class="st5" d="M361.3,348.4h-6.2c-2.2,0-4.1-1.9-4.1-4.1v-91.5c0-2.2,1.9-4.1,4.1-4.1h6.2c2.2,0,4.1,1.9,4.1,4.1v91.8
			C365.4,346.5,363.5,348.4,361.3,348.4z"/>
	</g>
	<path class="st0" d="M104.2,368.3c-9.1,0-17.8-3.5-24.2-9.9c-8.3-8.3-11.7-20.2-9.1-32c2.9-12.7,13.1-22.9,25.4-25.4
		c11.6-2.7,23.5,0.6,31.7,8.8c8.4,8.3,11.9,20.4,9.3,32.3l0,0c-2.9,12.7-13.1,22.9-25.4,25.4C109.4,368.1,106.8,368.3,104.2,368.3z
		 M104.4,302.1c-2.5,0-5.1,0.3-7.7,0.9c-11.6,2.4-21.1,12-23.9,23.9c-2.4,11.1,0.8,22.3,8.6,30.1c7.8,7.8,19,11,30.1,8.6
		c11.5-2.4,21.1-12,23.9-23.9c2.4-11.2-0.8-22.6-8.8-30.4C120.6,305.3,112.7,302.1,104.4,302.1z M391,369.3V170.5h-23.6V70
		c0-2.2-0.5-4.3-1.3-6.3c0-0.3-0.1-0.6-0.3-0.7c-0.8-1.5-1.8-3-3-4.2l-53.9-54c-1.3-1.3-2.8-2.3-4.4-3.1c-0.2-0.2-0.4-0.3-0.6-0.3
		c-2-0.9-4.1-1.3-6.3-1.3H181c-8.8,0-15.9,7.2-15.9,15.9v132.4H66.6v117c-2.2-0.1-4.4-1.1-6-2.7l-8.4-8.4c-4.1-4.1-11.3-4.1-15.5,0
		l-12.5,12.5c-4.1,4.1-4.1,11.3,0,15.5l8.4,8.4c2.5,2.5,3.3,5.9,2.3,9.2l-2.5,7.2c-1,3.5-4.6,6.2-8.4,6.2H11c-6.1,0-11,4.8-11,11
		v19.9c0,6.1,4.8,11,11,11h12.8c3.9,0,7.2,2.4,8.4,6.2l2.5,7.2c1.1,3.1,0.2,6.8-2.3,9.2l-8.4,8.4c-4.1,4.1-4.1,11.3,0,15.5L36.5,414
		c4.1,4.1,11.3,4.1,15.5,0l8.4-8.4c2.5-2.5,5.9-3.3,9.2-2.3l7.2,2.5c3.5,1,6.2,4.6,6.2,8.4V427c0,6.1,4.8,11,11,11h19.9
		c6.1,0,11-4.8,11-11v-12.5c0-3.9,2.4-7.2,6.2-8.4l7.2-2.5c3.1-1.1,6.8-0.2,9.2,2.3l8.4,8.4c4.1,4.1,11.3,4.1,15.5,0l12.5-12.5
		c4.1-4.1,4.1-11.3,0-15.5l-8.4-8.4c-2.4-2.4-3.2-5.5-2.4-8.7H391z M304.7,4c1,0.6,1.9,1.3,2.7,2.1l53.9,54c0.8,0.8,1.5,1.7,2,2.6
		h-44.7c-7.7,0-14-6.3-14-14V4z M167,15.9c0-7.7,6.3-14,14-14h116.5c1.8,0,3.5,0.4,5.2,1v45.7c0,8.8,7.2,15.9,15.9,15.9h45.7
		c0.7,1.7,1,3.4,1,5.3v100.5H193.2l-15-22.1h-0.5H167V15.9z M68.6,150.3H166h11.1l15,22.1h0.5h173.7H389v194.9H173.6l2-5.8
		c1-3.5,4.6-6.2,8.4-6.2h12.8c6.1,0,11-4.8,11-11l0-20.2c0.2-2.8-0.9-5.5-2.9-7.6c-2.1-2.2-4.9-3.4-7.8-3.4h-12.8
		c-3.9,0-7.2-2.4-8.4-6.2l-2.5-7.2c-1.1-3.1-0.2-6.8,2.3-9.2l8.4-8.4c4.1-4.1,4.1-11.3,0-15.5l-12.5-12.5c-4.1-4.1-11.3-4.1-15.5,0
		l-8.4,8.4c-2.5,2.5-5.9,3.3-9.2,2.3l-7.2-2.5c-3.5-1-6.2-4.6-6.2-8.4v-12.8c0-6.1-4.8-11-11-11H94.2c-6.1,0-11,4.8-11,11V254
		c0,3.9-2.4,7.2-6.2,8.4l-7.2,2.5c-0.4,0.1-0.8,0.2-1.3,0.3V150.3z M173.9,379.4l8.4,8.4c3.3,3.4,3.3,9.3,0,12.7l-12.4,12.4
		c-3.4,3.3-9.3,3.3-12.7,0l-8.4-8.4c-3-3-7.5-4.1-11.3-2.7l-7.2,2.5c-4.5,1.4-7.6,5.6-7.6,10.3V427c0,5-3.9,9-9,9H93.9
		c-5,0-9-3.9-9-9v-12.8c0-4.7-3.2-9-7.5-10.3l-7.2-2.5c-1.2-0.4-2.3-0.6-3.5-0.6c-2.9,0-5.6,1.1-7.8,3.3l-8.4,8.4
		c-3.4,3.3-9.3,3.3-12.7,0l-12.4-12.4c-3.3-3.4-3.3-9.3,0-12.7l8.4-8.4c3-3,4.1-7.5,2.7-11.3l-2.5-7.2c-1.4-4.5-5.6-7.6-10.3-7.6H11
		c-5,0-9-3.9-9-9v-19.9c0-5,3.9-9,9-9H24c4.7,0,9-3.2,10.3-7.5l2.5-7.2c1.3-4,0.3-8.3-2.7-11.3l-8.4-8.4c-3.3-3.4-3.3-9.3,0-12.7
		l12.4-12.4c3.4-3.3,9.3-3.3,12.7,0l8.4,8.4c2,2,4.7,3.2,7.4,3.3c0.7,0,1.3,0,2-0.1c0.7-0.1,1.3-0.2,1.9-0.5l7.2-2.5
		c4.5-1.4,7.6-5.6,7.6-10.3v-12.8c0-5,3.9-9,9-9h19.9c5,0,9,3.9,9,9V254c0,4.7,3.2,9,7.5,10.3l7.2,2.5c4,1.3,8.3,0.3,11.3-2.7
		l8.4-8.4c3.4-3.3,9.3-3.3,12.7,0l12.4,12.4c3.3,3.4,3.3,9.3,0,12.7l-8.4,8.4c-3,3-4.1,7.5-2.7,11.3l2.5,7.2
		c1.4,4.5,5.6,7.6,10.3,7.6H197c2.3,0,4.7,1,6.3,2.8c1.6,1.7,2.4,3.9,2.3,6.2v20.2c0,5-3.9,9-9,9H184c-4.7,0-9,3.2-10.3,7.5
		l-2.2,6.4l-0.3,0.8c-0.1,0.4-0.2,0.8-0.3,1.2C170.1,373,171.2,376.7,173.9,379.4z"/>
</g>
</svg>
