<?xml version="1.0" encoding="utf-8"?>
<!-- Generator: Adobe Illustrator 23.0.1, SVG Export Plug-In . SVG Version: 6.00 Build 0)  -->
<svg version="1.1" id="Layer_1" xmlns="http://www.w3.org/2000/svg" xmlns:xlink="http://www.w3.org/1999/xlink" x="0px" y="0px"
	 viewBox="0 0 45 27.7" style="enable-background:new 0 0 45 27.7;" xml:space="preserve">
<style type="text/css">
	.st0{fill:#9F7AD1;}
	.st1{fill:#6BC200;}
	.st2{fill:#0090C5;}
	.st3{fill:#1E272A;}
</style>
<path class="st0" d="M35.9,27.7h6.3c1.4,0,2.8-1.2,2.8-2.8c0-1.6-1.2-2.8-2.8-2.8h-7C35.8,23.4,36,25,36,26L35.9,27.7L35.9,27.7z"/>
<path class="st1" d="M45,13.9c0-1.6-1.2-2.8-2.8-2.8H26.5c-0.3,1.5-0.9,2.9-1.7,4.1c1.6,0.3,3.1,0.8,4.5,1.5h12.9
	C43.7,16.6,45,15.3,45,13.9z"/>
<path class="st2" d="M42.2,5.5c1.4,0,2.8-1.2,2.8-2.8S43.8,0,42.2,0H23.9c1.3,1.5,2.2,3.4,2.6,5.5H42.2z"/>
<path class="st3" d="M31.7,23.7c-1.5-2.9-5.3-4.6-9.1-4.9c-1.8,1.4-4.1,2.3-6.5,2.3s-4.6-0.9-6.5-2.3c-3.8,0.3-7.6,2-9.1,4.9
	C0.1,24.3,0,25.2,0,26.1v1.6h16.1h16.1v-1.6C32.1,25.2,32,24.3,31.7,23.7z"/>
<path class="st3" d="M16.1,0c-3.8,0-6.9,3.7-6.9,8.2s3.1,8.2,6.9,8.2S23,12.7,23,8.2S19.9,0,16.1,0z"/>
</svg>
