<?xml version="1.0" encoding="utf-8"?>
<!-- Generator: Adobe Illustrator 21.0.0, SVG Export Plug-In . SVG Version: 6.00 Build 0)  -->
<svg version="1.1" id="Layer_1" xmlns="http://www.w3.org/2000/svg" xmlns:xlink="http://www.w3.org/1999/xlink" x="0px" y="0px"
	 viewBox="0 0 44.1 39.1" style="enable-background:new 0 0 44.1 39.1;" xml:space="preserve">
<style type="text/css">
	.st0{fill:#1E272A;}
</style>
<path class="st0" d="M43.6,33.9L25,1.7c-1.3-2.3-4.6-2.3-5.9,0L0.5,33.9c-1.3,2.3,0.3,5.1,3,5.1h37.2C43.3,39.1,44.9,36.2,43.6,33.9
	z M24.3,10.1l-0.5,15h-3.6l-0.5-15H24.3z M23.8,31.8c-0.5,0.4-1,0.7-1.8,0.7c-0.7,0-1.3-0.2-1.8-0.7c-0.5-0.4-0.7-1-0.7-1.7
	s0.2-1.2,0.7-1.7c0.5-0.4,1-0.7,1.8-0.7c0.7,0,1.3,0.2,1.8,0.7c0.5,0.4,0.7,1,0.7,1.7S24.3,31.3,23.8,31.8z"/>
</svg>
