<?xml version="1.0" encoding="utf-8"?>
<!-- Generator: Adobe Illustrator 21.1.0, SVG Export Plug-In . SVG Version: 6.00 Build 0)  -->
<svg version="1.1" id="Layer_1" xmlns="http://www.w3.org/2000/svg" xmlns:xlink="http://www.w3.org/1999/xlink" x="0px" y="0px"
	 viewBox="0 0 140 140" style="enable-background:new 0 0 140 140;" xml:space="preserve">
<style type="text/css">
	.st0{fill:#1E272A;}
</style>
<title>Purity_License</title>
<path class="st0" d="M4.9,69.5C4.9,33.6,34.1,4.4,70,4.4s65.1,29.1,65.1,65.1s-29.1,65.1-65.1,65.1S4.9,105.5,4.9,69.5
	C4.9,69.5,4.9,69.5,4.9,69.5 M0,70c0,38.7,31.3,70,70,70s70-31.3,70-70S108.7,0,70,0S0,31.3,0,70"/>
<polygon class="st0" points="76.5,60.2 70.1,68.7 63.8,60.2 57.9,60.2 67.7,72.7 67.7,79.4 72.6,79.4 72.6,72.7 82.4,60.2 "/>
<polygon class="st0" points="102.1,64.5 102.1,60.2 84.6,60.2 84.6,79.4 102.1,79.4 102.1,75.1 89.5,75.1 89.5,71.8 101.5,71.8 
	101.5,67.6 89.5,67.6 89.5,64.5 "/>
<polygon class="st0" points="78.9,88 78.9,83.6 61.4,83.6 61.4,102.9 78.9,102.9 78.9,98.6 66.3,98.6 66.3,95.2 78.3,95.2 78.3,91 
	66.3,91 66.3,88 "/>
<path class="st0" d="M121.9,71.9c3.1-1.1,4.8-4.6,3.6-7.8c-0.9-2.4-3.1-4-5.6-4h-11.7v19.3h4.9v-7.2h3.2l5.4,7.1h5.9L121.9,71.9z
	 M113.1,64.5h6.3c1,0,1.8,0.8,1.8,1.8c0,1-0.8,1.7-1.8,1.8h-6.3V64.5z"/>
<path class="st0" d="M76.7,119.3c3-1.4,4.3-5.1,2.9-8.1c-1-2.1-3.1-3.4-5.4-3.5H61.4V127h4.9v-7.1h5l5.3,7.1h5.9L76.7,119.3z
	 M66.3,112.1h7.4c1,0,1.8,0.8,1.8,1.8c0,1-0.8,1.8-1.8,1.8h-7.4V112.1z"/>
<path class="st0" d="M50.5,60.2h-4.6l-9.6,19.2h5.3l1.5-3.2h10.3l1.6,3.2h5.3L50.5,60.2z M51.4,72h-6.5l3.3-6.6L51.4,72z"/>
<path class="st0" d="M72.5,36.3h-4.7l-9.6,19.3h5.3l1.6-3.2h10.3l1.6,3.2h5.3L72.5,36.3z M73.4,48.1h-6.5l3.3-6.6L73.4,48.1z"/>
<path class="st0" d="M31.6,69.4c1.9-2.5,1.4-6.1-1.1-8c-1-0.8-2.2-1.2-3.5-1.2H14v19.3h13.3c3.3,0.2,6.1-2.4,6.3-5.7
	c0-0.1,0-0.2,0-0.3C33.5,71.9,32.8,70.4,31.6,69.4z M18.9,64.5h7.7c0.9,0,1.5,0.7,1.5,1.6c0,0.8-0.7,1.5-1.5,1.6h-7.7V64.5z
	 M18.9,71.5h8c1,0.1,1.8,0.9,1.9,1.9c0,1-0.9,1.8-1.9,1.8h-8V71.5z"/>
<path class="st0" d="M78.7,22.6c2-2.3,1.7-5.7-0.6-7.7c-1-0.8-2.3-1.3-3.6-1.3H61.6v18.8h13c3.2,0.2,5.9-2.3,6.1-5.5
	c0-0.1,0-0.2,0-0.2C80.7,25.1,79.9,23.6,78.7,22.6z M74.3,28.4h-8v-3.7h8c1,0.1,1.8,0.9,1.9,1.9C76.1,27.6,75.3,28.4,74.3,28.4z
	 M73.9,20.8h-7.6v-3.1h7.6c0.9,0,1.5,0.7,1.5,1.6C75.4,20.1,74.8,20.8,73.9,20.8z"/>
</svg>
