<?xml version="1.0" encoding="utf-8"?>
<!-- Generator: Adobe Illustrator 21.1.0, SVG Export Plug-In . SVG Version: 6.00 Build 0)  -->
<svg version="1.1" id="Layer_1" xmlns="http://www.w3.org/2000/svg" xmlns:xlink="http://www.w3.org/1999/xlink" x="0px" y="0px"
	 viewBox="0 0 140 140" style="enable-background:new 0 0 140 140;" xml:space="preserve">
<style type="text/css">
	.st0{fill:#8AA4B1;}
	.st1{fill:#1E272A;}
</style>
<title>Purity_About</title>
<path class="st0" d="M70,0C31.3,0,0,31.3,0,70s31.3,70,70,70s70-31.3,70-70S108.7,0,70,0z M70,131.1c-33.7,0-61.1-27.3-61.1-61.1
	C8.9,36.3,36.3,8.9,70,8.9c33.7,0,61.1,27.3,61.1,61.1c0,33.7-27.2,61-60.9,61.1C70.1,131.1,70,131.1,70,131.1z"/>
<path class="st1" d="M75.4,48.5c6.8,0,12.1-5.5,12.1-11.3c0-4.8-3.1-8.9-9.2-8.9c-8.2,0-12.1,6.5-11.8,11.3
	C66.2,45.1,69.6,48.5,75.4,48.5z"/>
<path class="st1" d="M74.4,101.1c-1.2,0-1.7-1.4-0.5-5.8l6.3-24.1c2.4-8.9,1.7-14.7-3.1-14.7c-5.6,0-19.1,5.8-30.7,15.7l2.4,4.1
	c3.6-2.4,9.9-5.1,11.3-5.1c1.2,0,1,1.4,0,5.1l-5.5,22.9c-3.4,13,0,15.9,4.8,15.9s17.1-4.3,28.5-15.9l-2.7-3.6
	C80.5,99.4,75.9,101.1,74.4,101.1L74.4,101.1z"/>
</svg>
