<?xml version="1.0" encoding="utf-8"?>
<!-- Generator: Adobe Illustrator 21.1.0, SVG Export Plug-In . SVG Version: 6.00 Build 0)  -->
<svg version="1.1" id="Layer_1" xmlns="http://www.w3.org/2000/svg" xmlns:xlink="http://www.w3.org/1999/xlink" x="0px" y="0px"
	 viewBox="0 0 138.1 91.8" style="enable-background:new 0 0 138.1 91.8;" xml:space="preserve">
<style type="text/css">
	.st0{fill:#1E272A;}
	.st1{fill:#8AA4B1;}
</style>
<g>
	<path class="st0" d="M124.8,21.4c7.1,0,12.8-5.9,12.8-12c0-5.1-3.3-9.4-9.7-9.4c-8.7,0-12.8,6.9-12.5,12
		C115.1,17.9,118.7,21.4,124.8,21.4z"/>
	<path class="st0" d="M123.8,77c-1.3,0-1.8-1.5-0.5-6.1l6.6-25.5c2.6-9.4,1.8-15.6-3.3-15.6c-5.9,0-20.2,6.1-32.4,16.6l2.6,4.3
		c3.8-2.6,10.5-5.4,12-5.4c1.3,0,1,1.5,0,5.4L102.9,75c-3.6,13.8,0,16.8,5.1,16.8c5.1,0,18.1-4.6,30.1-16.8l-2.8-3.8
		C130.1,75.2,125.3,77,123.8,77L123.8,77z"/>
	<g>
		<path class="st1" d="M97.9,66.6H12.5c-1.7,0-3-1.3-3-3l0-51.1c0-1.7,1.3-3,3-3h96.3c0.4-3.4,1.9-6.8,4.1-9.5H12
			C5.4,0,0,4.7,0,10.4v55.3c0,5.7,5.4,10.4,12,10.4h47.2v6.3H42.1c-2.8,0-5,2.4-4.7,5.2c0.2,2.5,2.4,4.3,4.9,4.3h43.3
			c2.5,0,4.7-1.8,4.9-4.3c0.3-2.8-1.9-5.2-4.7-5.2H68.7v-6.3h27c0.2-0.9,0.4-1.8,0.6-2.7L97.9,66.6z"/>
	</g>
</g>
</svg>
