<?xml version="1.0" encoding="utf-8"?>
<!-- Generator: Adobe Illustrator 25.0.1, SVG Export Plug-In . SVG Version: 6.00 Build 0)  -->
<svg version="1.1" id="Layer_1" xmlns="http://www.w3.org/2000/svg" xmlns:xlink="http://www.w3.org/1999/xlink" x="0px" y="0px"
	 viewBox="0 0 115 115" style="enable-background:new 0 0 115 115;" xml:space="preserve">
<style type="text/css">
	.st0{fill:#8F9395;}
	.st1{fill:#0090C5;}
	.st2{fill:#50575A;}
	.st3{fill:#6BC200;}
	.st4{fill:#9F7AD1;}
	.st5{fill:#F05650;}
</style>
<path class="st0" d="M57.5,113.509c-30.878,0-56-25.122-56-56s25.122-56,56-56c30.878,0,56,25.122,56,56
	S88.378,113.509,57.5,113.509z M57.5,3.492c-29.785,0-54.017,24.232-54.017,54.017s24.232,54.017,54.017,54.017
	c29.785,0,54.017-24.232,54.017-54.017S87.285,3.492,57.5,3.492z"/>
<g>
	<rect x="34.929" y="51.073" class="st1" width="25.716" height="2.289"/>
	<g>
		<path class="st2" d="M56.483,39.73l4.123-4.119L61.218,35h-5.932v-3.75c0-2.063-1.687-3.75-3.75-3.75h-7.5
			c-2.063,0-3.75,1.687-3.75,3.75V35h-7.5v7.5h20.924L56.483,39.73z M44.037,35v-3.743l0.007-0.007h7.487
			c0.002,0.002,0.005,0.004,0.007,0.007L51.537,35H44.037z"/>
		<g>
			<path class="st2" d="M70.287,39.344v-2.469c0-1.031-0.844-1.875-1.875-1.875H67.33v1.39L70.287,39.344z"/>
			<path class="st2" d="M67.33,73.843v10.568H28.376V35h-1.214c-1.031,0-1.875,0.844-1.875,1.875v48.75
				c0,1.031,0.844,1.875,1.875,1.875h41.25c1.031,0,1.875-0.844,1.875-1.875V70.889L67.33,73.843z"/>
		</g>
	</g>
	<polygon class="st3" points="60.645,60.407 60.645,59.864 34.929,59.864 34.929,62.154 58.896,62.154 	"/>
	<polygon class="st4" points="56.475,70.511 54.618,68.655 34.929,68.655 34.929,70.945 56.909,70.945 	"/>
</g>
<polygon class="st5" points="80.13,55.117 92.551,42.708 92.551,42.707 88.428,38.588 88.412,38.572 76.007,50.997 63.578,38.58 
	63.578,38.58 59.455,42.699 59.439,42.715 71.884,55.117 59.447,67.541 63.57,71.661 76.007,59.236 88.436,71.653 92.559,67.534 "/>
</svg>
