<?xml version="1.0" encoding="utf-8"?>
<!-- Generator: Adobe Illustrator 21.1.0, SVG Export Plug-In . SVG Version: 6.00 Build 0)  -->
<svg version="1.1" id="Layer_1" xmlns="http://www.w3.org/2000/svg" xmlns:xlink="http://www.w3.org/1999/xlink" x="0px" y="0px"
	 viewBox="0 0 110 137.3" style="enable-background:new 0 0 110 137.3;" xml:space="preserve">
<style type="text/css">
	.st0{fill:#8AA4B1;}
	.st1{fill:#6BC200;}
	.st2{fill:#9F7AD1;}
	.st3{fill:#1E272A;}
</style>
<path class="st0" d="M109.7,100.6c-0.3-1-0.3-1.7-0.7-2.7L94.5,54.7c-0.7-2.4-2.4-4.4-4.4-6.1c-2-1.7-4.7-2.4-7.1-2.4H27
	c-2.7,0-5.1,0.7-7.1,2.4c-2.4,1.7-3.7,3.7-4.4,6.1L1,97.9c-0.3,1-0.3,1.7-0.7,2.7c-0.3,1-0.3,2-0.3,2.7v22.6c0,3,1,5.7,3.4,8.1
	s5.1,3.4,8.1,3.4h87.1c1.7,0,3-0.3,4.4-1s2.7-1.3,3.7-2.4s1.7-2.4,2.4-3.7s1-3,1-4.4v-22.6C110,102.6,109.7,101.6,109.7,100.6z
	 M22.6,55.3c0.3-0.7,0.7-1,1.3-1.7c0.7-0.3,1.3-0.7,2-0.7h58.4c0.7,0,1.3,0.3,2,0.7c0.7,0.3,1,1,1,1.7l12.1,39.1H10.5L22.6,55.3z
	 M102.6,127.5c0,0.7-0.3,1.3-0.7,1.7s-1,0.7-1.7,0.7H9.1c-0.7,0-1.3-0.3-1.7-0.7s-0.7-1-0.7-1.7v-24.3c0-0.7,0.3-1.3,0.7-1.7
	c0.3-0.3,1-0.7,1.7-0.7h91.1c0.7,0,1,0.3,1.7,0.7c0.3,0.3,0.7,1,0.7,1.7V127.5z"/>
<path class="st1" d="M69.5,110c1.7,0,3,0.7,4,1.7c1,1,1.7,2.4,1.7,4s-0.7,3-1.7,4c-1,1-2.4,1.7-4,1.7s-3-0.7-4-1.7
	c-1-1-1.7-2.4-1.7-4s0.7-2.7,1.7-4C66.8,110.3,68.2,110,69.5,110"/>
<path class="st2" d="M88.1,110c1.7,0,2.7,0.7,4,1.7c1,1,1.7,2.4,1.7,4s-0.7,3-1.7,4c-1,1-2.4,1.7-4,1.7s-3-0.7-4-1.7
	c-1-1-1.7-2.4-1.7-4s0.7-2.7,1.7-4C85,110.3,86.4,110,88.1,110"/>
<path class="st3" d="M80,34.8c0,0-19.9,22.9-21.9,25.3c-2,2.4-5.4,0.7-5.4,0.7S32.4,38.5,30,34.4c-2.4-3.7,2-4.4,2-4.4h11.1V2.4
	c0-1.3,1-2.4,2.4-2.4h18.6c1.3,0,2.4,1,2.4,2.4V30h10.8C82.7,30,80,34.8,80,34.8z"/>
</svg>
