<?xml version="1.0" encoding="utf-8"?>
<!-- Generator: Adobe Illustrator 21.1.0, SVG Export Plug-In . SVG Version: 6.00 Build 0)  -->
<svg version="1.1" id="Layer_1" xmlns="http://www.w3.org/2000/svg" xmlns:xlink="http://www.w3.org/1999/xlink" x="0px" y="0px"
	 viewBox="0 0 162.9 132.8" style="enable-background:new 0 0 162.9 132.8;" xml:space="preserve">
<style type="text/css">
	.st0{fill:none;}
	.st1{fill:#0090C5;}
	.st2{fill:#6BC200;}
	.st3{fill:#9F7AD1;}
	.st4{fill:#1E272A;}
	.st5{fill:#8AA4B1;}
</style>
<title>Purity_DateTime</title>
<path class="st0" d="M69.9,81.4v-9.8c0-0.6,0.4-1,1-1h4.8c0.5-1.3,1.1-2.5,1.7-3.8h-6.5c-0.6,0-1-0.4-1-1V56c0-0.6,0.4-1,1-1h9.8
	c0.6,0,1,0.4,1,1v4.1c1.1-1.5,2.4-2.9,3.7-4.3c0.1-0.4,0.4-0.7,0.8-0.7c1.4-1.4,3-2.7,4.6-3.9h-4.4c-0.6,0-1-0.4-1-1v-9.8
	c0-0.6,0.4-1,1-1h9.8c0.6,0,1,0.4,1,1v6.8c1.2-0.6,2.4-1.2,3.7-1.7v-5.2c0-0.6,0.4-1,1-1h9.8c0.6,0,1,0.4,1,1v2.2
	c0.7-0.1,1.3-0.1,2-0.2V12.2c0-0.6-0.4-1-1-1h-21V14c0,1.4-1.1,2.5-2.5,2.5s-2.5-1.1-2.5-2.5v-2.8H62.8V14c0,1.4-1.1,2.5-2.5,2.5
	s-2.5-1.1-2.5-2.5v-2.8H33V14c0,1.4-1.1,2.5-2.5,2.5S28,15.4,28,14v-2.8H7c-0.6,0-1,0.4-1,1v71.3c0,0.6,0.4,1,1,1h65.5
	c0-0.7,0.1-1.4,0.2-2.1h-1.8C70.4,82.4,69.9,82,69.9,81.4z M100.9,24.7c0-0.6,0.4-1,1-1h9.8c0.6,0,1,0.4,1,1v9.8c0,0.6-0.4,1-1,1
	h-9.8c-0.6,0-1-0.4-1-1V24.7z M85.4,24.7c0-0.6,0.4-1,1-1h9.8c0.6,0,1,0.4,1,1v9.8c0,0.6-0.4,1-1,1h-9.9c-0.6,0-1-0.4-1-1L85.4,24.7
	z M70,24.7c0-0.6,0.4-1,1-1h9.8c0.6,0,1,0.4,1,1v9.8c0,0.6-0.4,1-1,1h-9.9c-0.6,0-1-0.4-1-1L70,24.7z M70,40.4c0-0.6,0.4-1,1-1h9.8
	c0.6,0,1,0.4,1,1v9.8c0,0.6-0.4,1-1,1h-9.9c-0.6,0-1-0.4-1-1L70,40.4z M19.8,81.4c0,0.6-0.4,1-1,1H9c-0.6,0-1-0.4-1-1v-9.8
	c0-0.6,0.4-1,1-1h9.8c0.6,0,1,0.4,1,1L19.8,81.4z M19.8,65.9c0,0.6-0.4,1-1,1H9c-0.6,0-1-0.4-1-1V56c0-0.6,0.4-1,1-1h9.8
	c0.6,0,1,0.4,1,1L19.8,65.9z M19.8,50.2c0,0.6-0.4,1-1,1H9c-0.6,0-1-0.4-1-1v-9.8c0-0.6,0.4-1,1-1h9.8c0.6,0,1,0.4,1,1L19.8,50.2z
	 M19.8,34.5c0,0.6-0.4,1-1,1H9c-0.6,0-1-0.4-1-1v-9.8c0-0.6,0.4-1,1-1h9.8c0.6,0,1,0.4,1,1L19.8,34.5z M35.3,81.4c0,0.6-0.4,1-1,1
	h-9.8c-0.6,0-1-0.4-1-1v-9.8c0-0.6,0.4-1,1-1h9.8c0.6,0,1,0.4,1,1L35.3,81.4z M35.3,65.9c0,0.6-0.4,1-1,1h-9.8c-0.6,0-1-0.4-1-1V56
	c0-0.6,0.4-1,1-1h9.8c0.6,0,1,0.4,1,1L35.3,65.9z M35.3,50.2c0,0.6-0.4,1-1,1h-9.8c-0.6,0-1-0.4-1-1v-9.8c0-0.6,0.4-1,1-1h9.8
	c0.6,0,1,0.4,1,1L35.3,50.2z M35.3,34.5c0,0.6-0.4,1-1,1h-9.8c-0.6,0-1-0.4-1-1v-9.8c0-0.6,0.4-1,1-1h9.8c0.6,0,1,0.4,1,1L35.3,34.5
	z M50.8,81.4c0,0.6-0.4,1-1,1H40c-0.6,0-1-0.4-1-1v-9.8c0-0.6,0.4-1,1-1h9.8c0.6,0,1,0.4,1,1L50.8,81.4z M50.8,65.9c0,0.6-0.4,1-1,1
	H40c-0.6,0-1-0.4-1-1V56c0-0.6,0.4-1,1-1h9.8c0.6,0,1,0.4,1,1L50.8,65.9z M50.8,50.2c0,0.6-0.4,1-1,1H40c-0.6,0-1-0.4-1-1v-9.8
	c0-0.6,0.4-1,1-1h9.8c0.6,0,1,0.4,1,1L50.8,50.2z M50.8,34.5c0,0.6-0.4,1-1,1H40c-0.6,0-1-0.4-1-1v-9.8c0-0.6,0.4-1,1-1h9.8
	c0.6,0,1,0.4,1,1L50.8,34.5z M66.2,81.4c0,0.6-0.4,1-1,1h-9.8c-0.6,0-1-0.4-1-1v-9.8c0-0.6,0.4-1,1-1h9.8c0.6,0,1,0.4,1,1V81.4z
	 M66.2,65.9c0,0.6-0.4,1-1,1h-9.8c-0.6,0-1-0.4-1-1V56c0-0.6,0.4-1,1-1h9.8c0.6,0,1,0.4,1,1V65.9z M66.2,50.2c0,0.6-0.4,1-1,1h-9.8
	c-0.6,0-1-0.4-1-1v-9.8c0-0.6,0.4-1,1-1h9.8c0.6,0,1,0.4,1,1V50.2z M66.2,34.5c0,0.6-0.4,1-1,1h-9.8c-0.6,0-1-0.4-1-1v-9.8
	c0-0.6,0.4-1,1-1h9.8c0.6,0,1,0.4,1,1V34.5z"/>
<path class="st1" d="M101.9,23.7h9.8c0.6,0,1,0.4,1,1v9.8c0,0.6-0.4,1-1,1h-9.8c-0.6,0-1-0.4-1-1v-9.8
	C100.9,24.2,101.3,23.7,101.9,23.7z"/>
<path class="st1" d="M86.4,23.7h9.8c0.6,0,1,0.4,1,1v9.8c0,0.6-0.4,1-1,1h-9.8c-0.6,0-1-0.4-1-1v-9.8C85.4,24.2,85.8,23.7,86.4,23.7
	z"/>
<path class="st1" d="M70.9,23.7h9.8c0.6,0,1,0.4,1,1v9.8c0,0.6-0.4,1-1,1h-9.8c-0.6,0-1-0.4-1-1v-9.8C69.9,24.2,70.4,23.7,70.9,23.7
	z"/>
<path class="st1" d="M55.4,23.7h9.8c0.6,0,1,0.4,1,1v9.8c0,0.6-0.4,1-1,1h-9.8c-0.6,0-1-0.4-1-1v-9.8C54.4,24.2,54.9,23.7,55.4,23.7
	z"/>
<path class="st1" d="M40,23.7h9.8c0.6,0,1,0.4,1,1v9.8c0,0.6-0.4,1-1,1H40c-0.6,0-1-0.4-1-1v-9.8C39,24.2,39.4,23.7,40,23.7z"/>
<path class="st1" d="M24.5,23.7h9.8c0.6,0,1,0.4,1,1v9.8c0,0.6-0.4,1-1,1h-9.8c-0.6,0-1-0.4-1-1v-9.8C23.5,24.2,23.9,23.7,24.5,23.7
	z"/>
<path class="st2" d="M111.7,39.4h-9.8c-0.6,0-1,0.4-1,1v5.2c3.8-1.5,7.8-2.5,11.8-3v-2.2C112.7,39.8,112.2,39.4,111.7,39.4z"/>
<path class="st2" d="M97.2,40.4c0-0.6-0.4-1-1-1h-9.8c-0.6,0-1,0.4-1,1v9.8c0,0.6,0.4,1,1,1h4.4c2-1.5,4.2-2.8,6.4-4L97.2,40.4z"/>
<path class="st2" d="M70.9,39.4h9.8c0.6,0,1,0.4,1,1v9.8c0,0.6-0.4,1-1,1h-9.8c-0.6,0-1-0.4-1-1v-9.8C69.9,39.8,70.4,39.4,70.9,39.4
	z"/>
<path class="st2" d="M55.4,39.4h9.8c0.6,0,1,0.4,1,1v9.8c0,0.6-0.4,1-1,1h-9.8c-0.6,0-1-0.4-1-1v-9.8C54.4,39.8,54.9,39.4,55.4,39.4
	z"/>
<path class="st2" d="M40,39.4h9.8c0.6,0,1,0.4,1,1v9.8c0,0.6-0.4,1-1,1H40c-0.6,0-1-0.4-1-1v-9.8C39,39.8,39.4,39.4,40,39.4z"/>
<path class="st2" d="M24.5,39.4h9.8c0.6,0,1,0.4,1,1v9.8c0,0.6-0.4,1-1,1h-9.8c-0.6,0-1-0.4-1-1v-9.8C23.5,39.8,23.9,39.4,24.5,39.4
	z"/>
<path class="st1" d="M9,23.7h9.8c0.6,0,1,0.4,1,1v9.8c0,0.6-0.4,1-1,1H9c-0.6,0-1-0.4-1-1v-9.8C8,24.2,8.4,23.7,9,23.7z"/>
<path class="st2" d="M9,39.4h9.8c0.6,0,1,0.4,1,1v9.8c0,0.6-0.4,1-1,1H9c-0.6,0-1-0.4-1-1v-9.8C8,39.8,8.4,39.4,9,39.4z"/>
<path class="st3" d="M86.2,55.1c-0.4,0.1-0.7,0.4-0.8,0.7L86.2,55.1z"/>
<path class="st3" d="M81.7,56c0-0.6-0.4-1-1-1h-9.8c-0.6,0-1,0.4-1,1v9.8c0,0.6,0.4,1,1,1h6.5c1.2-2.4,2.7-4.6,4.3-6.8L81.7,56z"/>
<path class="st3" d="M55.4,55h9.8c0.6,0,1,0.4,1,1v9.8c0,0.6-0.4,1-1,1h-9.8c-0.6,0-1-0.4-1-1V56C54.4,55.5,54.9,55,55.4,55z"/>
<path class="st3" d="M40,55h9.8c0.6,0,1,0.4,1,1v9.8c0,0.6-0.4,1-1,1H40c-0.6,0-1-0.4-1-1V56C39,55.5,39.4,55,40,55z"/>
<path class="st3" d="M24.5,55h9.8c0.6,0,1,0.4,1,1v9.8c0,0.6-0.4,1-1,1h-9.8c-0.6,0-1-0.4-1-1V56C23.5,55.5,23.9,55,24.5,55z"/>
<path class="st3" d="M9,55h9.8c0.6,0,1,0.4,1,1v9.8c0,0.6-0.4,1-1,1H9c-0.6,0-1-0.4-1-1V56C8,55.5,8.4,55,9,55z"/>
<path class="st4" d="M70.9,70.6c-0.6,0-1,0.4-1,1v9.8c0,0.6,0.4,1,1,1h1.8c0.5-4.1,1.5-8,3-11.8H70.9z"/>
<path class="st4" d="M55.4,70.6h9.8c0.6,0,1,0.4,1,1v9.8c0,0.6-0.4,1-1,1h-9.8c-0.6,0-1-0.4-1-1v-9.8C54.4,71.1,54.9,70.6,55.4,70.6
	z"/>
<path class="st4" d="M40,70.6h9.8c0.6,0,1,0.4,1,1v9.8c0,0.6-0.4,1-1,1H40c-0.6,0-1-0.4-1-1v-9.8C39,71.1,39.4,70.6,40,70.6z"/>
<path class="st4" d="M24.5,70.6h9.8c0.6,0,1,0.4,1,1v9.8c0,0.6-0.4,1-1,1h-9.8c-0.6,0-1-0.4-1-1v-9.8C23.5,71.1,23.9,70.6,24.5,70.6
	z"/>
<path class="st4" d="M9,70.6h9.8c0.6,0,1,0.4,1,1v9.8c0,0.6-0.4,1-1,1H9c-0.6,0-1-0.4-1-1v-9.8C8,71.1,8.4,70.6,9,70.6z"/>
<path class="st5" d="M120.7,42.4V12.2c0-3.9-3.1-7-7-7h-21V2.5c0-1.4-1.1-2.5-2.5-2.5s-2.5,1.1-2.5,2.5v2.7H62.8V2.5
	c0-1.4-1.1-2.5-2.5-2.5s-2.5,1.1-2.5,2.5v2.7H33V2.5C33,1.1,31.9,0,30.5,0S28,1.1,28,2.5v2.7H7c-3.9,0-7,3.1-7,7v71.3
	c0,3.9,3.1,7,7,7h65.5c1.7,24.9,23.2,43.8,48.1,42.2c24.9-1.7,43.8-23.2,42.2-48.1C161.3,61.9,143.3,43.9,120.7,42.4z M72.5,84.5H7
	c-0.6,0-1-0.4-1-1V12.2c0-0.6,0.4-1,1-1h21V14c0,1.4,1.1,2.5,2.5,2.5S33,15.4,33,14v-2.8h24.8V14c0,1.4,1.1,2.5,2.5,2.5
	s2.5-1.1,2.5-2.5v-2.8h24.9V14c0,1.4,1.1,2.5,2.5,2.5s2.5-1.1,2.5-2.5v-2.8h21c0.6,0,1,0.4,1,1v30.1c-0.7,0-1.3,0.1-2,0.2
	c-4.1,0.5-8,1.5-11.8,3c-1.3,0.5-2.5,1.1-3.7,1.7c-4,2.1-7.7,4.7-11,7.9l-0.8,0.7c-3.2,3.2-5.9,7-8,11c-0.6,1.2-1.2,2.5-1.7,3.8
	c-1.5,3.8-2.5,7.8-3,11.8C72.7,83.1,72.6,83.8,72.5,84.5z M117.7,127.8c-21.1,0-38.5-16.3-40.1-37.3c-0.1-1-0.1-2-0.1-3s0.1-2,0.1-3
	c0.1-0.7,0.1-1.4,0.2-2.1c0.9-6.8,3.5-13.4,7.6-18.9c4.1-5.5,9.5-9.9,15.8-12.7c3.7-1.7,7.6-2.8,11.5-3.3c0.7-0.1,1.3-0.2,2-0.2
	c1-0.1,2-0.1,3-0.1s2,0,3,0.1c22.2,1.6,38.8,20.9,37.2,43.1C156.3,111.5,138.8,127.8,117.7,127.8z"/>
<path class="st4" d="M117.7,90.5h-16.6c-1.7,0-3-1.3-3-3s1.3-3,3-3h13.6V62.3c0-1.7,1.3-3,3-3s3,1.3,3,3v25.2
	C120.7,89.2,119.3,90.5,117.7,90.5z"/>
<path class="st4" d="M155,88.5h-4.7c-0.6,0-1-0.4-1-1s0.4-1,1-1h4.7c0.6,0,1,0.4,1,1S155.6,88.5,155,88.5z"/>
<path class="st4" d="M145.9,72.2c-0.6,0-1-0.4-1-1c0-0.4,0.2-0.7,0.5-0.9l4.1-2.3c0.5-0.3,1.1-0.1,1.3,0.4c0.2,0.5,0.1,1-0.3,1.3
	l-4.1,2.4C146.3,72.2,146.1,72.2,145.9,72.2z"/>
<path class="st4" d="M134,60.3c-0.6,0-1-0.4-1-1c0-0.2,0-0.4,0.1-0.5l2.4-4.1c0.3-0.5,0.9-0.6,1.4-0.3c0.4,0.3,0.6,0.8,0.3,1.3
	l-2.4,4.1C134.7,60.1,134.4,60.3,134,60.3z"/>
<path class="st4" d="M117.7,55.9c-0.6,0-1-0.4-1-1v-4.7c0-0.6,0.4-1,1-1s1,0.4,1,1v4.7C118.7,55.5,118.2,55.9,117.7,55.9z"/>
<path class="st4" d="M101.4,60.3c-0.4,0-0.7-0.2-0.9-0.5l-2.4-4.1c-0.3-0.5-0.2-1.1,0.3-1.4c0.5-0.3,1.1-0.2,1.4,0.3c0,0,0,0,0,0.1
	l2.4,4.1c0.3,0.5,0.1,1.1-0.4,1.4C101.7,60.2,101.5,60.3,101.4,60.3L101.4,60.3z"/>
<path class="st4" d="M89.4,72.2c-0.2,0-0.3,0-0.5-0.1l-4.1-2.4c-0.5-0.3-0.7-0.9-0.4-1.3c0.3-0.5,0.9-0.7,1.3-0.4c0,0,0,0,0.1,0
	l4.1,2.4c0.5,0.3,0.6,0.9,0.4,1.4C90.1,72,89.8,72.2,89.4,72.2L89.4,72.2z"/>
<path class="st4" d="M85.1,88.5h-4.7c-0.6,0-1-0.4-1-1s0.4-1,1-1h4.7c0.6,0,1,0.4,1,1S85.6,88.5,85.1,88.5L85.1,88.5z"/>
<path class="st4" d="M85.3,107.2c-0.6,0-1-0.4-1-1c0-0.4,0.2-0.7,0.5-0.9l4.1-2.3c0.5-0.3,1.1-0.2,1.4,0.3c0.3,0.5,0.2,1.1-0.3,1.4
	c0,0,0,0-0.1,0l-4.1,2.4C85.7,107.2,85.5,107.2,85.3,107.2z"/>
<path class="st4" d="M99,120.9c-0.6,0-1-0.4-1-1c0-0.2,0-0.4,0.1-0.5l2.4-4.1c0.3-0.5,0.9-0.7,1.3-0.4c0.5,0.3,0.7,0.9,0.4,1.3
	c0,0,0,0,0,0.1l-2.4,4.1C99.7,120.7,99.4,120.9,99,120.9z"/>
<path class="st4" d="M117.7,125.9c-0.6,0-1-0.4-1-1v-4.7c0-0.6,0.4-1,1-1s1,0.4,1,1v4.7C118.7,125.4,118.2,125.9,117.7,125.9z"/>
<path class="st4" d="M136.3,120.9c-0.4,0-0.7-0.2-0.9-0.5l-2.4-4.1c-0.3-0.5-0.2-1.1,0.3-1.4c0.5-0.3,1.1-0.2,1.4,0.3c0,0,0,0,0,0.1
	l2.4,4.1c0.3,0.5,0.1,1.1-0.4,1.4C136.7,120.8,136.5,120.9,136.3,120.9L136.3,120.9z"/>
<path class="st4" d="M150,107.2c-0.2,0-0.3,0-0.5-0.1l-4.1-2.4c-0.5-0.3-0.7-0.9-0.4-1.3c0.3-0.5,0.9-0.7,1.3-0.4c0,0,0,0,0.1,0
	l4.1,2.4c0.5,0.3,0.6,0.9,0.4,1.4C150.7,107,150.4,107.2,150,107.2L150,107.2z"/>
</svg>
