<?xml version="1.0" encoding="utf-8"?>
<!-- Generator: Adobe Illustrator 24.2.0, SVG Export Plug-In . SVG Version: 6.00 Build 0)  -->
<svg version="1.1" id="Layer_1" xmlns="http://www.w3.org/2000/svg" xmlns:xlink="http://www.w3.org/1999/xlink" x="0px" y="0px"
	 viewBox="0 0 45 28" style="enable-background:new 0 0 45 28;" xml:space="preserve">
<style type="text/css">
	.st0{fill:#1E272A;}
	.st1{fill:#9F7AD1;}
	.st2{fill:#6BC200;}
	.st3{fill:#0090C5;}
</style>
<polygon class="st0" points="22,12 16.7,12 20.7,0 10,16 15.2,16 11.2,28 "/>
<path class="st1" d="M42,22H19.8l-3.8,6H42c1.7,0,3-1.3,3-3C45,23.3,43.7,22,42,22z"/>
<path class="st2" d="M42,11H27.3l-3.8,6L42,17c1.7,0,3-1.3,3-3S43.7,11,42,11z"/>
<path class="st3" d="M25,0l-1.9,6H42c1.7,0,3-1.3,3-3c0-1.7-1.3-3-3-3L25,0z"/>
<path class="st1" d="M9,22H3c-1.7,0-3,1.3-3,3c0,1.7,1.3,3,3,3h4l0.4-1.3L9,22z"/>
<path class="st2" d="M8.6,11H3c-1.7,0-3,1.3-3,3s1.3,3,3,3h1.5l2.1-3.2L8.6,11z"/>
<path class="st3" d="M3,0C1.3,0,0,1.3,0,3c0,1.7,1.3,3,3,3h8.9l4-6L3,0z"/>
</svg>
