<?xml version="1.0" encoding="utf-8"?>
<!-- Generator: Adobe Illustrator 19.2.0, SVG Export Plug-In . SVG Version: 6.00 Build 0)  -->
<svg version="1.1" xmlns="http://www.w3.org/2000/svg" xmlns:xlink="http://www.w3.org/1999/xlink" x="0px" y="0px"
	 viewBox="0 0 112 112" style="enable-background:new 0 0 112 112;" xml:space="preserve">
<style type="text/css">
	.st0{fill:#8F9395;}
	.st1{fill:#50575A;}
</style>
<g id="Layer_3">
	<path class="st0" d="M56,112C25.1,112,0,86.9,0,56S25.1,0,56,0c30.9,0,56,25.1,56,56S86.9,112,56,112z M56,2C26.2,2,2,26.2,2,56
		s24.2,54,54,54c29.8,0,54-24.2,54-54S85.8,2,56,2z"/>
</g>
<g id="Adv_Nav">
	<g>
		<g>
			<g>
				<path class="st1" d="M78.1,70.6c-2.2-4.3-7.7-6.7-13.2-7.1c-2.7,2.1-5.9,3.3-9.4,3.3s-6.7-1.2-9.4-3.3c-5.5,0.4-11,2.8-13.2,7.1
					c-0.5,0.9-0.6,2.3-0.6,3.5v2.3h23.2h23.2v-2.3C78.8,72.9,78.6,71.5,78.1,70.6z"/>
			</g>
			<g>
				<ellipse class="st1" cx="55.5" cy="48.7" rx="10.1" ry="11.9"/>
			</g>
		</g>
	</g>
</g>
</svg>
