<?xml version="1.0" encoding="utf-8"?>
<!-- Generator: Adobe Illustrator 21.1.0, SVG Export Plug-In . SVG Version: 6.00 Build 0)  -->
<svg version="1.1" id="Layer_1" xmlns="http://www.w3.org/2000/svg" xmlns:xlink="http://www.w3.org/1999/xlink" x="0px" y="0px"
	 viewBox="0 0 108 130" style="enable-background:new 0 0 108 130;" xml:space="preserve">
<style type="text/css">
	.st0{fill:#9F7AD1;}
	.st1{fill:#6BC200;}
</style>
<title>Contrasts</title>
<path class="st0" d="M35.6,34l17.6-12.3L38.4,10.5V0H22.3v10.2L0,26.3V100c-0.1,3.9,3,7.1,6.9,7.1c0.1,0,0.2,0,0.2,0h28.2L35.6,34z"
	/>
<path class="st1" d="M58.2,45.2V113H108v8.7c0,4.6-3.7,8.3-8.3,8.3c0,0,0,0,0,0H48.3c-4.6,0-8.3-3.7-8.4-8.3c0,0,0-0.1,0-0.1V37.1
	l25.4-18.3V7.1h18.6v11.8L108,37.1v7.7H58.2V45.2z"/>
<polygon class="st1" points="63.5,50.8 108,50.8 108,107.4 63.5,107.4 "/>
</svg>
