<?xml version="1.0" encoding="utf-8"?>
<!-- Generator: Adobe Illustrator 21.0.0, SVG Export Plug-In . SVG Version: 6.00 Build 0)  -->
<svg version="1.1" id="Layer_3" xmlns="http://www.w3.org/2000/svg" xmlns:xlink="http://www.w3.org/1999/xlink" x="0px" y="0px"
	 viewBox="0 0 112 112" style="enable-background:new 0 0 112 112;" xml:space="preserve">
<style type="text/css">
	.st0{fill:#8F9395;}
	.st1{fill:#6BC200;}
	.st2{fill:#0090C5;}
	.st3{fill:#9F7AD1;}
</style>
<path class="st0" d="M56,112C25.1,112,0,86.9,0,56S25.1,0,56,0c30.9,0,56,25.1,56,56S86.9,112,56,112z M56,2C26.2,2,2,26.2,2,56
	s24.2,54,54,54c29.8,0,54-24.2,54-54S85.8,2,56,2z"/>
<g>
	<g>
		<path class="st1" d="M79.3,59.6H32.7c-2,0-3.6-1.6-3.6-3.6v0c0-2,1.6-3.6,3.6-3.6h46.5c2,0,3.6,1.6,3.6,3.6v0
			C82.8,58,81.2,59.6,79.3,59.6z"/>
		<path class="st2" d="M79.3,46.9H32.7c-2,0-3.6-1.6-3.6-3.6v0c0-2,1.6-3.6,3.6-3.6h46.5c2,0,3.6,1.6,3.6,3.6v0
			C82.8,45.3,81.2,46.9,79.3,46.9z"/>
		<path class="st3" d="M79.3,72.2H32.7c-2,0-3.6-1.6-3.6-3.6v0c0-2,1.6-3.6,3.6-3.6h46.5c2,0,3.6,1.6,3.6,3.6v0
			C82.8,70.6,81.2,72.2,79.3,72.2z"/>
	</g>
</g>
</svg>
