<?xml version="1.0" encoding="utf-8"?>
<!-- Generator: Adobe Illustrator 19.2.0, SVG Export Plug-In . SVG Version: 6.00 Build 0)  -->
<svg version="1.1" xmlns="http://www.w3.org/2000/svg" xmlns:xlink="http://www.w3.org/1999/xlink" x="0px" y="0px"
	 viewBox="0 0 112 112" style="enable-background:new 0 0 112 112;" xml:space="preserve">
<style type="text/css">
	.st0{fill:#8F9395;}
	.st1{fill:#50575A;}
</style>
<g id="Layer_3">
	<path class="st0" d="M56,112C25.1,112,0,86.9,0,56S25.1,0,56,0c30.9,0,56,25.1,56,56S86.9,112,56,112z M56,2C26.2,2,2,26.2,2,56
		s24.2,54,54,54c29.8,0,54-24.2,54-54S85.8,2,56,2z"/>
</g>
<g id="Adv_Nav">
	<g>
		<ellipse class="st0" cx="32.3" cy="54.4" rx="6.7" ry="7.9"/>
		<ellipse class="st0" cx="78.8" cy="54.4" rx="6.7" ry="7.9"/>
		<path class="st0" d="M32.1,66.5c-2.2-0.1-4.3-0.8-6-2.2c-3.7,0.3-7.4,1.9-8.8,4.7c-0.3,0.6-0.4,1.5-0.4,2.4v1.6h12.4
			c0.1-1.1,0.3-2.6,0.9-3.7C30.6,68.2,31.3,67.3,32.1,66.5z"/>
		<path class="st0" d="M94.3,71.4c0-0.8-0.1-1.8-0.4-2.4c-1.5-2.8-5.1-4.5-8.8-4.7c-1.7,1.3-3.8,2.1-6,2.2c0.8,0.8,1.4,1.7,1.9,2.7
			c0.6,1.2,0.8,2.6,0.9,3.7h12.4V71.4z"/>
		<g>
			<g>
				<path class="st1" d="M78.1,70.6c-2.2-4.3-7.7-6.7-13.2-7.1c-2.7,2.1-5.9,3.3-9.4,3.3s-6.7-1.2-9.4-3.3c-5.5,0.4-11,2.8-13.2,7.1
					c-0.5,0.9-0.6,2.3-0.6,3.5v2.3h23.2h23.2v-2.3C78.8,72.9,78.6,71.5,78.1,70.6z"/>
			</g>
			<g>
				<ellipse class="st1" cx="55.5" cy="48.7" rx="10.1" ry="11.9"/>
			</g>
		</g>
	</g>
</g>
</svg>
