<?xml version="1.0" encoding="utf-8"?>
<!-- Generator: Adobe Illustrator 24.2.0, SVG Export Plug-In . SVG Version: 6.00 Build 0)  -->
<svg version="1.1" id="Layer_1" xmlns="http://www.w3.org/2000/svg" xmlns:xlink="http://www.w3.org/1999/xlink" x="0px" y="0px"
	 viewBox="0 0 45 28" style="enable-background:new 0 0 45 28;" xml:space="preserve">
<style type="text/css">
	.st0{fill:#1E272A;}
	.st1{fill:#6BC200;}
	.st2{fill:#0090C5;}
	.st3{fill:#9F7AD1;}
</style>
<path class="st0" d="M31.7,23.9c-1.5-3-5.3-4.7-9.1-5c-1.8,1.5-4.1,2.3-6.5,2.3s-4.6-0.9-6.5-2.3c-3.8,0.3-7.6,2-9.1,5
	C0.1,24.5,0,25.5,0,26.4V28h16.1h16.1v-1.6C32.1,25.5,32,24.5,31.7,23.9z"/>
<path class="st0" d="M16.1,0c-3.8,0-6.9,3.7-6.9,8.3s3.1,8.3,6.9,8.3S23,12.9,23,8.3S19.9,0,16.1,0z"/>
<path class="st1" d="M5.4,11H3c-1.7,0-3,1.3-3,3c0,1.4,1,2.6,2.3,2.9c1.4-0.8,3.1-1.3,4.8-1.6C6.3,14,5.7,12.5,5.4,11z"/>
<path class="st2" d="M3,0C1.3,0,0,1.3,0,3c0,1.7,1.3,3,3,3h2.3C5.7,3.7,6.7,1.7,8,0H3z"/>
<path class="st2" d="M26.8,6H42c1.7,0,3-1.3,3-3s-1.3-3-3-3L24.1,0C25.5,1.7,26.4,3.7,26.8,6z"/>
<path class="st3" d="M42,22h-6.8c0,0,0,0.1,0.1,0.1c0.7,1.4,0.9,3.1,0.9,4.3V28v0H42c1.7,0,3-1.3,3-3C45,23.3,43.7,22,42,22z"/>
<path class="st1" d="M42,11H26.7c-0.3,1.5-0.9,3-1.7,4.3c1.8,0.3,3.5,0.9,5,1.7l12,0c1.7,0,3-1.3,3-3S43.7,11,42,11z"/>
</svg>
